<?xml version="1.0" encoding="utf-8"?>
<!-- Generator: Adobe Illustrator 21.0.2, SVG Export Plug-In . SVG Version: 6.00 Build 0)  -->
<svg version="1.1" id="Слой_1" xmlns="http://www.w3.org/2000/svg" xmlns:xlink="http://www.w3.org/1999/xlink" x="0px" y="0px"
	 viewBox="0 0 539.4 367.7" style="enable-background:new 0 0 539.4 367.7;" xml:space="preserve">
<style type="text/css">
	.st0{clip-path:url(#SVGID_2_);fill:#58595B;}
	.st1{fill:none;stroke:#FFFFFF;stroke-width:0.5;}
	.st2{fill:#3C4E73;}
	.st3{fill:none;stroke:#3C4E73;stroke-width:0.25;}
	.st4{clip-path:url(#SVGID_4_);fill:#929496;}
	.st5{clip-path:url(#SVGID_4_);fill:#58595B;}
	.st6{fill:#FFFFFF;}
	.st7{clip-path:url(#SVGID_6_);fill:#929496;}
	.st8{clip-path:url(#SVGID_6_);fill:#58595B;}
	.st9{fill:#A6A8AA;}
	.st10{fill:none;stroke:#A6A8AA;stroke-width:0.25;}
	.st11{clip-path:url(#SVGID_8_);fill:#929496;}
	.st12{clip-path:url(#SVGID_8_);fill:#58595B;}
	.st13{fill:#D5652B;}
	.st14{fill:none;stroke:#D5652B;stroke-width:0.25;}
	.st15{clip-path:url(#SVGID_10_);fill:#929496;}
	.st16{clip-path:url(#SVGID_12_);fill:#58595B;}
	.st17{clip-path:url(#SVGID_14_);fill:#929496;}
	.st18{clip-path:url(#SVGID_14_);fill:#58595B;}
	.st19{fill:#58595B;}
	.st20{fill:#929496;}
	.st21{clip-path:url(#SVGID_16_);fill:#58595B;}
	.st22{clip-path:url(#SVGID_16_);fill:#FFFFFF;}
	.st23{clip-path:url(#SVGID_16_);fill:#002C55;}
	.st24{clip-path:url(#SVGID_16_);fill:#3C4E73;}
	.st25{clip-path:url(#SVGID_16_);}
	.st26{clip-path:url(#SVGID_16_);fill:#D5652B;}
	.st27{clip-path:url(#SVGID_16_);fill:#A6A8AA;}
</style>
<g>
	<defs>
		<rect id="SVGID_1_" x="42.5" y="30" width="448.5" height="298.7"/>
	</defs>
	<clipPath id="SVGID_2_">
		<use xlink:href="#SVGID_1_"  style="overflow:visible;"/>
	</clipPath>
	<path class="st0" d="M277.8,42.9c-0.3-0.8-0.7-1.6-1-2.4h-1v3.5h0.7v-2.9c0.3,0.8,0.7,1.6,1.1,2.6h0.5c0.3-0.9,0.7-1.8,1.1-2.6v2.9
		h0.7v-3.5h-1C278.5,41.3,278.1,42.1,277.8,42.9 M275.2,44.1c-0.5-1-1-1.6-1.2-1.7c-0.1-0.1-0.2-0.1-0.4-0.2
		c0.2-0.2,0.7-0.7,1.5-1.6h-0.8c-0.7,0.9-1.2,1.4-1.5,1.7v-1.7h-0.7v3.5h0.7v-1.7c0.3,0,0.5,0.2,0.8,0.4c0.3,0.2,0.5,0.7,0.9,1.3
		H275.2z M267.5,43.5c-0.8,0-1-0.4-1.1-2c0-1.1,0.1-1.6,0.4-1.8c0.1-0.1,0.4-0.1,0.6-0.1c0.3,0,0.5,0,0.6,0.1
		c0.1,0.1,0.3,0.3,0.3,0.5c0.1,0.3,0.1,0.7,0.1,1.2c0,0.8-0.1,1.3-0.2,1.6S267.9,43.5,267.5,43.5 M269.3,41.6c0-1.3-0.3-2-0.8-2.3
		c-0.2-0.1-0.6-0.2-1-0.2c-0.8,0-1.3,0.2-1.6,1c-0.1,0.4-0.2,0.9-0.2,1.5c0,1,0.1,1.6,0.4,2c0.3,0.4,0.7,0.6,1.4,0.6
		C268.8,44.2,269.3,43.6,269.3,41.6 M263.2,43.5c-0.8,0-1-0.4-1.1-2c0-1.1,0.1-1.6,0.4-1.8c0.1-0.1,0.4-0.1,0.6-0.1
		c0.3,0,0.5,0,0.6,0.1c0.1,0.1,0.3,0.3,0.3,0.5c0.1,0.3,0.1,0.7,0.1,1.2c0,0.8-0.1,1.3-0.2,1.6S263.6,43.5,263.2,43.5 M264.9,41.6
		c0-1.3-0.3-2-0.8-2.3c-0.2-0.1-0.6-0.2-1-0.2c-0.8,0-1.3,0.2-1.6,1c-0.1,0.4-0.2,0.9-0.2,1.5c0,1,0.1,1.6,0.4,2
		c0.3,0.4,0.7,0.6,1.4,0.6C264.4,44.2,264.9,43.6,264.9,41.6 M259.4,39l-2,0.9l0.2,0.6l1.1-0.5v4.1h0.7V39z M253.7,44.1h0.7l2.5-4.9
		h-0.7L253.7,44.1z M252.3,44.1h0.7v-3.5h-2.3c0,0.9-0.1,1.6-0.3,2.2s-0.4,0.8-0.6,0.8l0.1,0.7c0.5,0,0.8-0.4,1-1
		c0.2-0.6,0.3-1.3,0.3-2.1h1.1V44.1z M246.5,43.4l-0.6,1.8h0.6l0.8-1.8H246.5z M244.5,43.5h-1.6c0.2-0.9,0.4-1.7,0.4-2.4h1.1V43.5z
		 M241.7,45h0.5v-0.9h2.8V45h0.5l0.2-1.5h-0.7v-3h-2.4c0,1-0.2,2-0.5,3h-0.6L241.7,45z M238.5,42.3c0-0.5,0.1-0.9,0.2-1.1
		c0.1-0.2,0.4-0.2,0.8-0.2s0.6,0.1,0.8,0.2s0.2,0.5,0.2,1.1c0,0.5-0.1,0.9-0.2,1c-0.1,0.2-0.4,0.3-0.7,0.3s-0.6-0.1-0.8-0.3
		C238.6,43.2,238.5,42.8,238.5,42.3 M239.5,44.2c0.6,0,1-0.1,1.3-0.4c0.3-0.3,0.4-0.8,0.4-1.5c0-0.7-0.1-1.2-0.4-1.4
		c-0.3-0.3-0.7-0.4-1.3-0.4c-0.6,0-1,0.1-1.3,0.4c-0.3,0.3-0.4,0.7-0.4,1.4c0,0.7,0.1,1.2,0.4,1.5C238.5,44,238.9,44.2,239.5,44.2
		 M237.3,44.1c-0.4-0.6-0.8-1.2-1.2-1.8c0.4-0.5,0.8-1.1,1.2-1.8h-0.8c-0.3,0.5-0.6,0.9-0.8,1.2c-0.3-0.5-0.6-0.9-0.9-1.2h-0.8
		c0.5,0.5,0.9,1.1,1.4,1.8c-0.6,0.8-1.1,1.4-1.4,1.8h0.8l1-1.3c0.4,0.5,0.7,0.9,0.9,1.3H237.3z M233.5,43.4
		c-0.3,0.1-0.6,0.2-0.8,0.2c-0.4,0-0.7-0.1-0.8-0.3c-0.2-0.2-0.2-0.5-0.2-1c0-1.1,0.3-1.3,1.1-1.3c0.3,0,0.6,0.1,0.8,0.2l0.2-0.6
		c-0.3-0.1-0.7-0.2-1.1-0.2c-0.6,0-1,0.1-1.3,0.4c-0.3,0.3-0.4,0.7-0.4,1.4s0.1,1.2,0.4,1.5c0.3,0.3,0.7,0.4,1.3,0.4
		c0.4,0,0.8-0.1,1.1-0.2L233.5,43.4z M229.4,43.5c-0.3,0.1-0.5,0.1-0.8,0.1c-0.3,0-0.5,0-0.6-0.1c-0.1-0.1-0.2-0.3-0.2-0.6
		c0-0.3,0.1-0.4,0.2-0.5c0.1-0.1,0.3-0.1,0.6-0.1c0.3,0,0.6,0,0.8,0.1V43.5z M230,41.8c0-0.5-0.1-0.9-0.3-1.1
		c-0.2-0.2-0.6-0.3-1.2-0.3c-0.4,0-0.9,0.1-1.3,0.2l0.1,0.6c0.3-0.1,0.6-0.2,1-0.2c0.4,0,0.7,0.1,0.8,0.2c0.1,0.1,0.2,0.4,0.2,0.7
		c-0.3-0.1-0.7-0.1-0.9-0.1c-0.5,0-0.8,0.1-1.1,0.2c-0.2,0.2-0.4,0.5-0.4,0.9c0,0.5,0.1,0.8,0.3,0.9c0.2,0.2,0.6,0.3,1.1,0.3
		c0.6,0,1.1-0.1,1.5-0.3V41.8z M224.6,41c0.4,0,0.6,0.1,0.8,0.3c0.1,0.2,0.2,0.5,0.2,1c0,0.5-0.1,0.8-0.2,1
		c-0.1,0.2-0.4,0.3-0.7,0.3c-0.5,0-0.8-0.2-0.8-0.5v-2C224,41.1,224.2,41,224.6,41 M224.7,44.2c0.5,0,0.9-0.1,1.2-0.4
		c0.3-0.3,0.4-0.8,0.4-1.5c0-0.7-0.1-1.2-0.4-1.5c-0.3-0.3-0.7-0.4-1.3-0.4c-0.6,0-1.1,0.1-1.5,0.3v4.7h0.7v-1.5
		C224,44.1,224.3,44.2,224.7,44.2"/>
	<path class="st0" d="M248,30.2c0,0.6,0.3,0.9,1,0.9s1-0.3,1-0.9h-0.5c0,0.3-0.2,0.4-0.5,0.4c-0.4,0-0.5-0.1-0.5-0.4H248z
		 M250.5,35.1v-3.5h-0.7c-0.6,1.1-1.2,1.9-1.7,2.6v-2.6h-0.7v3.5h0.7c0.7-0.9,1.2-1.7,1.7-2.5v2.5H250.5z M246.5,35.1v-3.5h-0.7
		c-0.6,1.1-1.2,1.9-1.7,2.6v-2.6h-0.7v3.5h0.7c0.7-0.9,1.2-1.7,1.7-2.5v2.5H246.5z M241.8,35.1h0.7v-3.5h-0.7v1.4h-1.7v-1.4h-0.7
		v3.5h0.7v-1.6h1.7V35.1z M237.6,34.5H236c0.2-0.9,0.4-1.7,0.4-2.4h1.1V34.5z M234.9,36h0.5v-0.9h2.8V36h0.5l0.2-1.5h-0.7v-3h-2.4
		c0,1-0.2,2-0.5,3h-0.6L234.9,36z M232.9,32c0.3,0,0.5,0.1,0.6,0.2c0.1,0.1,0.2,0.4,0.2,0.7h-1.7C232,32.2,232.2,32,232.9,32
		 M232.8,31.4c-1.1,0-1.6,0.5-1.6,1.9c0,0.7,0.1,1.2,0.4,1.5c0.3,0.3,0.7,0.4,1.3,0.4c0.4,0,0.8-0.1,1.2-0.2l-0.1-0.6
		c-0.3,0.1-0.7,0.2-1,0.2c-0.4,0-0.7-0.1-0.8-0.2c-0.2-0.2-0.2-0.5-0.2-0.9h2.4v-0.2c0-0.7-0.1-1.2-0.4-1.5
		C233.8,31.6,233.4,31.4,232.8,31.4 M228.8,32c0.4,0,0.6,0.1,0.8,0.3c0.1,0.2,0.2,0.5,0.2,1c0,0.5-0.1,0.8-0.2,1
		c-0.1,0.2-0.4,0.3-0.7,0.3c-0.5,0-0.8-0.2-0.8-0.5v-2C228.1,32.1,228.4,32,228.8,32 M228.8,35.2c0.5,0,0.9-0.1,1.2-0.4
		c0.3-0.3,0.4-0.8,0.4-1.5c0-0.7-0.1-1.2-0.4-1.5c-0.3-0.3-0.7-0.4-1.3-0.4c-0.6,0-1.1,0.1-1.5,0.3v4.7h0.7v-1.5
		C228.2,35.1,228.5,35.2,228.8,35.2 M223,32.6c0,1,0.2,1.6,0.5,2c0.4,0.4,0.9,0.6,1.7,0.6c0.5,0,1-0.1,1.4-0.2l-0.2-0.6
		c-0.3,0.1-0.7,0.2-1.1,0.2c-1.1,0-1.6-0.3-1.6-1.9c0-0.8,0.1-1.3,0.4-1.6c0.3-0.3,0.6-0.3,1.2-0.3c0.4,0,0.8,0.1,1.1,0.2l0.2-0.6
		c-0.4-0.1-0.9-0.2-1.4-0.2c-0.8,0-1.3,0.1-1.7,0.5C223.1,31,223,31.6,223,32.6"/>
	<path class="st0" d="M309.7,30l-2.3,1.3l0.3,0.8l1.1-0.7v5.9h0.9V30z M305.6,36.3l-0.5,2.6h0.8l0.8-2.6H305.6z M302.7,33.7
		c-0.4,0-0.7-0.1-0.8-0.3c-0.1-0.2-0.2-0.5-0.2-1.1c0-1,0.2-1.4,0.9-1.4c0.8,0,0.9,0.2,1,1.7c0,0.4,0,0.7-0.1,1
		C303.3,33.6,303.1,33.7,302.7,33.7 M302.8,37.2c1.1-1.5,1.8-2.9,1.8-4.7c0-1-0.1-1.6-0.4-1.9c-0.3-0.3-0.8-0.5-1.5-0.5
		c-0.7,0-1.2,0.2-1.5,0.5c-0.3,0.3-0.4,0.9-0.4,1.8c0,0.8,0.1,1.3,0.4,1.6c0.3,0.3,0.8,0.5,1.4,0.5c0.2,0,0.5,0,0.8-0.1
		c-0.3,0.9-0.9,1.8-1.7,2.9H302.8z M299.1,30l-2.3,1.3l0.3,0.8l1.1-0.7v5.9h0.9V30z"/>
</g>
<rect x="223.2" y="55.4" class="st1" width="5.4" height="77.8"/>
<rect x="250.5" y="55.1" class="st1" width="5.4" height="78.1"/>
<rect x="277.3" y="55.4" class="st1" width="5.4" height="77.8"/>
<rect x="304.1" y="55.4" class="st1" width="5.4" height="77.8"/>
<rect x="223.1" y="102.1" class="st2" width="5.6" height="31.2"/>
<rect x="223.1" y="102.1" class="st3" width="5.6" height="31.2"/>
<rect x="250.3" y="71.4" class="st2" width="5.6" height="61.9"/>
<rect x="250.3" y="71.4" class="st3" width="5.6" height="61.9"/>
<rect x="277.1" y="92.4" class="st2" width="5.6" height="40.9"/>
<rect x="277.1" y="92.4" class="st3" width="5.6" height="40.9"/>
<rect x="303.9" y="110.6" class="st2" width="5.6" height="22.7"/>
<rect x="303.9" y="110.6" class="st3" width="5.6" height="22.7"/>
<g>
	<defs>
		<rect id="SVGID_3_" x="42.5" y="30" width="448.5" height="298.7"/>
	</defs>
	<clipPath id="SVGID_4_">
		<use xlink:href="#SVGID_3_"  style="overflow:visible;"/>
	</clipPath>
	<path class="st4" d="M231.7,97c0,0.7-0.1,0.9-0.7,0.9c-0.5,0-0.7-0.3-0.7-1.8c0.2-0.1,0.4-0.1,0.7-0.1c0.3,0,0.5,0.1,0.6,0.2
		C231.6,96.4,231.7,96.6,231.7,97 M232.2,93.6c-0.3-0.1-0.6-0.2-1-0.2c-1.1,0-1.6,0.5-1.6,2.5c0,2,0.3,2.6,1.4,2.6
		c0.5,0,0.8-0.1,1-0.3c0.2-0.2,0.3-0.6,0.3-1.2c0-1.1-0.3-1.5-1.3-1.5c-0.2,0-0.4,0-0.7,0.1c0.1-1.3,0.3-1.5,0.9-1.5
		c0.3,0,0.6,0.1,0.8,0.2L232.2,93.6z M226.7,94.2c0.3-0.1,0.6-0.2,0.9-0.2c0.6,0,0.7,0.2,0.7,0.7c0,0.6-0.2,0.8-0.7,0.8h-0.5v0.6
		h0.5c0.5,0,0.7,0.2,0.7,0.9c0,0.3-0.1,0.6-0.2,0.7c-0.1,0.1-0.3,0.2-0.6,0.2c-0.3,0-0.6-0.1-0.9-0.2l-0.2,0.6
		c0.3,0.1,0.7,0.2,1.2,0.2c1,0,1.4-0.4,1.4-1.4c0-0.8-0.2-1.2-0.9-1.3c0.6-0.1,0.8-0.5,0.8-1.2c0-0.8-0.4-1.2-1.3-1.2
		c-0.4,0-0.8,0.1-1.2,0.2L226.7,94.2z M225.5,97.7l-0.4,1.8h0.5l0.5-1.8H225.5z M223.5,97.9c-0.5,0-0.7-0.4-0.7-2
		c0-1.7,0.1-1.9,0.7-1.9c0.5,0,0.7,0.2,0.7,1.9c0,0.8,0,1.3-0.1,1.6C223.9,97.8,223.8,97.9,223.5,97.9 M224.8,95.9
		c0-1.3-0.2-2-0.6-2.3c-0.2-0.1-0.4-0.2-0.7-0.2s-0.6,0.1-0.7,0.2c-0.2,0.1-0.3,0.4-0.4,0.7c-0.1,0.4-0.2,0.9-0.2,1.5
		c0,2,0.4,2.6,1.3,2.6C224.4,98.5,224.8,97.9,224.8,95.9 M219.9,97.9c0.5-0.5,0.9-1,1.1-1.3c0.2-0.3,0.4-0.6,0.5-0.8
		c0.1-0.2,0.1-0.5,0.1-0.9c0-1-0.4-1.4-1.3-1.4c-0.4,0-0.8,0.1-1.1,0.2l0.2,0.6c0.3-0.1,0.6-0.2,0.9-0.2c0.5,0,0.7,0.2,0.7,0.8
		c0,0.3,0,0.5-0.1,0.7c-0.1,0.2-0.2,0.5-0.5,0.8c-0.3,0.3-0.7,0.8-1.3,1.5v0.5h2.5v-0.6H219.9z"/>
	<path class="st4" d="M255.9,63.1c0.3-0.1,0.6-0.2,0.9-0.2c0.6,0,0.7,0.2,0.7,0.7c0,0.6-0.2,0.8-0.7,0.8h-0.5v0.6h0.5
		c0.5,0,0.7,0.2,0.7,0.9c0,0.3-0.1,0.6-0.2,0.7c-0.1,0.1-0.3,0.2-0.6,0.2c-0.3,0-0.6-0.1-0.9-0.2l-0.2,0.6c0.3,0.1,0.7,0.2,1.2,0.2
		c1,0,1.4-0.4,1.4-1.4c0-0.8-0.2-1.2-0.9-1.3c0.6-0.1,0.8-0.5,0.8-1.2c0-0.8-0.4-1.2-1.3-1.2c-0.4,0-0.8,0.1-1.2,0.2L255.9,63.1z
		 M254.7,66.7l-0.4,1.8h0.5l0.5-1.8H254.7z M253.2,62.3l-1.6,0.9l0.2,0.5l0.8-0.5v4.1h0.6V62.3z M249.1,66.8c0.5-0.5,0.9-1,1.1-1.3
		c0.2-0.3,0.4-0.6,0.5-0.8c0.1-0.2,0.1-0.5,0.1-0.9c0-1-0.4-1.4-1.3-1.4c-0.4,0-0.8,0.1-1.1,0.2l0.2,0.6c0.3-0.1,0.6-0.2,0.9-0.2
		c0.5,0,0.7,0.2,0.7,0.8c0,0.3,0,0.5-0.1,0.7c-0.1,0.2-0.2,0.5-0.5,0.8c-0.3,0.3-0.7,0.8-1.3,1.5v0.5h2.5v-0.6H249.1z"/>
	<path class="st4" d="M285.5,86.9h-1c0.3-0.8,0.6-1.6,1-2.3V86.9z M285.2,84c-0.5,1-1,2.1-1.5,3.4v0.2h1.7v1.4h0.6v-1.4h0.5v-0.6
		h-0.5v-3H285.2z M280.9,84v0.6h1.9c-0.2,0.5-0.5,1.2-0.7,2s-0.5,1.6-0.7,2.3h0.7c0.2-0.7,0.4-1.6,0.7-2.5c0.3-0.9,0.6-1.7,0.8-2.2
		V84H280.9z M279.8,88.1l-0.4,1.8h0.5l0.5-1.8H279.8z M277.8,88.3c-0.5,0-0.7-0.4-0.7-2c0-1.7,0.1-1.9,0.7-1.9
		c0.5,0,0.7,0.2,0.7,1.9c0,0.8,0,1.3-0.1,1.6C278.2,88.2,278,88.3,277.8,88.3 M279.1,86.3c0-1.3-0.2-2-0.6-2.3
		c-0.2-0.1-0.4-0.2-0.7-0.2c-0.3,0-0.6,0.1-0.7,0.2c-0.2,0.1-0.3,0.4-0.4,0.7s-0.2,0.9-0.2,1.5c0,2,0.4,2.6,1.3,2.6
		C278.7,88.9,279,88.4,279.1,86.3 M274.2,88.3c0.5-0.5,0.9-1,1.1-1.3c0.2-0.3,0.4-0.6,0.5-0.8c0.1-0.2,0.1-0.5,0.1-0.9
		c0-1-0.4-1.4-1.3-1.4c-0.4,0-0.8,0.1-1.1,0.2l0.2,0.6c0.3-0.1,0.6-0.2,0.9-0.2c0.5,0,0.7,0.2,0.7,0.8c0,0.3,0,0.5-0.1,0.7
		s-0.2,0.5-0.5,0.8c-0.3,0.3-0.7,0.8-1.3,1.5v0.5h2.5v-0.6H274.2z"/>
	<path class="st4" d="M311,101.5l-1.6,0.9l0.2,0.5l0.8-0.5v4.1h0.6V101.5z M308.1,105.8l-0.4,1.8h0.5l0.5-1.8H308.1z M306.1,104
		c-0.3,0-0.5-0.1-0.6-0.2c-0.1-0.1-0.1-0.4-0.1-0.7c0-0.7,0.1-1,0.7-1c0.5,0,0.7,0.1,0.7,1.2c0,0.3,0,0.5-0.1,0.7
		C306.5,104,306.3,104,306.1,104 M306.1,106.5c0.8-1,1.3-2,1.3-3.3c0-0.7-0.1-1.1-0.3-1.3c-0.2-0.2-0.5-0.4-1-0.4
		c-0.5,0-0.8,0.1-1,0.4s-0.3,0.7-0.3,1.3c0,0.5,0.1,0.9,0.3,1.1c0.2,0.2,0.5,0.3,1,0.3c0.2,0,0.3,0,0.5-0.1c-0.2,0.6-0.6,1.3-1.2,2
		H306.1z M303.5,101.5l-1.6,0.9l0.2,0.5l0.8-0.5v4.1h0.6V101.5z"/>
	<path class="st5" d="M469.9,37.2h1v-5.1h-3.3c0,1.3-0.2,2.3-0.4,3.1c-0.2,0.8-0.5,1.1-0.9,1.1l0.1,1c0.7,0,1.2-0.5,1.5-1.4
		c0.3-0.9,0.5-1.8,0.5-2.9h1.5V37.2z M461.6,36.2l-0.8,2.6h0.9l1.1-2.6H461.6z M459,36.4c-0.4,0.1-0.8,0.2-1.2,0.2
		c-0.5,0-0.8-0.1-0.9-0.2c-0.2-0.1-0.2-0.4-0.2-0.8c0-0.4,0.1-0.6,0.2-0.7c0.2-0.1,0.5-0.2,0.9-0.2c0.5,0,0.9,0,1.2,0.1V36.4z
		 M459.9,34c0-0.8-0.2-1.3-0.5-1.5c-0.3-0.3-0.9-0.4-1.6-0.4c-0.6,0-1.2,0.1-1.9,0.3l0.2,0.8c0.4-0.1,0.9-0.2,1.5-0.2
		c0.6,0,0.9,0.1,1.1,0.3c0.2,0.2,0.3,0.5,0.3,1c-0.5-0.1-0.9-0.2-1.4-0.2c-0.7,0-1.2,0.1-1.5,0.3c-0.3,0.2-0.5,0.7-0.5,1.3
		c0,0.6,0.2,1.1,0.5,1.3c0.3,0.2,0.9,0.4,1.6,0.4c0.8,0,1.5-0.1,2.2-0.4V34z M453.4,34.5c0.8-0.1,1.1-0.4,1.1-1.2
		c0-0.8-0.3-1.2-1.4-1.2h-2.9v5.1h2.9c1,0,1.4-0.5,1.4-1.4C454.6,35,454.3,34.6,453.4,34.5 M451.2,34.2V33h1.7
		c0.5,0,0.6,0.1,0.6,0.6c0,0.4-0.2,0.6-0.6,0.6H451.2z M451.2,36.5v-1.5h1.7c0.5,0,0.7,0.3,0.7,0.8c0,0.5-0.2,0.7-0.7,0.7H451.2z
		 M448.8,37.2v-5.1h-0.9c-0.9,1.5-1.7,2.8-2.4,3.7v-3.7h-0.9v5.1h0.9c1-1.3,1.8-2.4,2.4-3.5v3.5H448.8z M442.1,37.2h1v-5.1h-3.3
		c0,1.3-0.2,2.3-0.4,3.1c-0.2,0.8-0.5,1.1-0.8,1.1l0.1,1c0.7,0,1.2-0.5,1.5-1.4c0.3-0.9,0.5-1.8,0.5-2.9h1.5V37.2z M436.6,37.2h0.9
		v-5.1h-4.3v5.1h0.9V33h2.4V37.2z M428.3,34.7c0-0.8,0.1-1.3,0.3-1.5c0.2-0.2,0.6-0.4,1.1-0.4s0.9,0.1,1.1,0.4
		c0.2,0.2,0.3,0.7,0.3,1.5c0,0.8-0.1,1.3-0.3,1.5s-0.5,0.4-1.1,0.4s-0.9-0.1-1.1-0.4C428.4,36,428.3,35.5,428.3,34.7 M429.6,37.4
		c0.8,0,1.4-0.2,1.8-0.6c0.4-0.4,0.6-1.1,0.6-2.1c0-1-0.2-1.7-0.6-2.1c-0.4-0.4-1-0.6-1.8-0.6c-0.8,0-1.4,0.2-1.8,0.6
		c-0.4,0.4-0.6,1.1-0.6,2.1c0,1,0.2,1.7,0.6,2.1C428.2,37.2,428.8,37.4,429.6,37.4 M426.6,33v-0.8h-4.7V33h1.9v4.2h1V33H426.6z
		 M417.1,36.4h-2.3c0.3-1.2,0.5-2.4,0.6-3.4h1.6V36.4z M413.2,38.6h0.8v-1.3h4.1v1.3h0.7l0.2-2.2h-1v-4.2h-3.4
		c-0.1,1.4-0.3,2.8-0.8,4.2H413L413.2,38.6z M408.7,34.7c0-0.8,0.1-1.3,0.3-1.5c0.2-0.2,0.5-0.4,1.1-0.4s0.9,0.1,1.1,0.4
		c0.2,0.2,0.3,0.7,0.3,1.5c0,0.8-0.1,1.3-0.3,1.5s-0.5,0.4-1.1,0.4s-0.9-0.1-1.1-0.4S408.7,35.5,408.7,34.7 M410,37.4
		c0.8,0,1.4-0.2,1.8-0.6c0.4-0.4,0.6-1.1,0.6-2.1c0-1-0.2-1.7-0.6-2.1c-0.4-0.4-1-0.6-1.8-0.6c-0.8,0-1.4,0.2-1.8,0.6
		c-0.4,0.4-0.6,1.1-0.6,2.1c0,1,0.2,1.7,0.6,2.1C408.6,37.2,409.2,37.4,410,37.4 M406.9,37.2c-0.6-0.9-1.2-1.8-1.8-2.6
		c0.6-0.8,1.1-1.6,1.8-2.5h-1.1c-0.5,0.8-0.9,1.4-1.2,1.8c-0.5-0.7-0.9-1.2-1.3-1.8h-1.2c0.7,0.8,1.3,1.6,2,2.5
		c-0.8,1.1-1.5,2-2,2.5h1.1l1.4-1.8c0.5,0.8,0.9,1.4,1.2,1.8H406.9z M401.5,36.3c-0.4,0.2-0.8,0.3-1.2,0.3c-0.6,0-0.9-0.1-1.2-0.4
		s-0.4-0.7-0.4-1.5c0.1-1.6,0.4-1.8,1.5-1.8c0.5,0,0.9,0.1,1.2,0.2l0.3-0.8c-0.4-0.2-0.9-0.2-1.5-0.2c-0.8,0-1.5,0.2-1.9,0.6
		c-0.4,0.4-0.6,1.1-0.6,2.1s0.2,1.7,0.6,2.1c0.4,0.4,1,0.6,1.9,0.6c0.6,0,1.1-0.1,1.5-0.3L401.5,36.3z M395.6,36.4
		c-0.4,0.1-0.8,0.2-1.2,0.2c-0.5,0-0.8-0.1-0.9-0.2s-0.2-0.4-0.2-0.8c0-0.4,0.1-0.6,0.2-0.7c0.2-0.1,0.5-0.2,0.9-0.2
		c0.5,0,0.9,0,1.2,0.1V36.4z M396.5,34c0-0.8-0.2-1.3-0.5-1.5c-0.3-0.3-0.9-0.4-1.6-0.4c-0.6,0-1.2,0.1-1.9,0.3l0.2,0.8
		c0.4-0.1,0.9-0.2,1.5-0.2c0.6,0,0.9,0.1,1.1,0.3c0.2,0.2,0.3,0.5,0.3,1c-0.5-0.1-0.9-0.2-1.4-0.2c-0.7,0-1.2,0.1-1.5,0.3
		c-0.3,0.2-0.5,0.7-0.5,1.3c0,0.6,0.1,1.1,0.5,1.3c0.3,0.2,0.9,0.4,1.6,0.4c0.8,0,1.5-0.1,2.2-0.4V34z M387,34.8h2.4
		c1.4,0,2-1.1,1.9-2.2c0-1.5-0.7-2.3-2-2.3H386v7h1V34.8z M387,31.1h2.2c0.7,0,1,0.5,1,1.5c0,0.9-0.3,1.4-1,1.4H387V31.1z"/>
</g>
<rect x="466.7" y="82.6" class="st6" width="5.4" height="32.9"/>
<rect x="386.3" y="55.4" class="st1" width="5.4" height="77.8"/>
<rect x="439.9" y="55.4" class="st1" width="5.4" height="77.8"/>
<rect x="413.1" y="55.4" class="st1" width="5.4" height="77.8"/>
<rect x="466.7" y="55.4" class="st1" width="5.4" height="77.8"/>
<rect x="386.1" y="106.6" class="st2" width="5.6" height="26.7"/>
<rect x="386.1" y="106.6" class="st3" width="5.6" height="26.7"/>
<rect x="439.7" y="67.8" class="st2" width="5.6" height="65.5"/>
<rect x="439.7" y="67.8" class="st3" width="5.6" height="65.5"/>
<rect x="412.9" y="92.4" class="st2" width="5.6" height="40.9"/>
<rect x="412.9" y="92.4" class="st3" width="5.6" height="40.9"/>
<rect x="466.5" y="115.6" class="st2" width="5.6" height="17.7"/>
<rect x="466.5" y="115.6" class="st3" width="5.6" height="17.7"/>
<g>
	<defs>
		<rect id="SVGID_5_" x="42.5" y="30" width="448.5" height="298.7"/>
	</defs>
	<clipPath id="SVGID_6_">
		<use xlink:href="#SVGID_5_"  style="overflow:visible;"/>
	</clipPath>
	<path class="st7" d="M396.5,98.5h-2.1v2.6c0.3-0.1,0.6-0.1,0.9-0.1c0.3,0,0.5,0.1,0.6,0.2c0.1,0.1,0.1,0.4,0.1,0.8
		c0,0.4-0.1,0.6-0.2,0.7c-0.1,0.1-0.3,0.2-0.6,0.2c-0.3,0-0.6-0.1-0.9-0.2l-0.2,0.6c0.4,0.1,0.7,0.2,1.1,0.2c0.5,0,0.9-0.1,1.1-0.3
		c0.2-0.2,0.3-0.6,0.3-1.2c0-0.5-0.1-0.9-0.3-1.2c-0.2-0.2-0.5-0.3-1-0.3c-0.1,0-0.3,0-0.4,0v-1.4h1.5V98.5z M391.1,102.1
		c0,1,0.4,1.4,1.3,1.4s1.3-0.4,1.3-1.4c0-0.8-0.2-1.2-0.8-1.3c0.6-0.1,0.8-0.5,0.8-1.2c0-0.8-0.3-1.2-1.2-1.2
		c-0.9,0-1.2,0.4-1.2,1.2c0,0.7,0.2,1.1,0.8,1.2C391.3,100.8,391.1,101.3,391.1,102.1 M393,99.7c0,0.6-0.2,0.8-0.6,0.8
		c-0.4,0-0.6-0.2-0.6-0.8c0-0.6,0.1-0.8,0.6-0.8C392.8,99,393,99.2,393,99.7 M393,102.1c0,0.7-0.2,0.9-0.7,0.9
		c-0.5,0-0.7-0.2-0.7-0.9c0-0.7,0.2-1,0.7-1S393,101.4,393,102.1 M389.3,102.9c-0.5,0-0.7-0.4-0.7-2c0-1.7,0.1-1.9,0.7-1.9
		c0.5,0,0.7,0.2,0.7,1.9c0,0.8,0,1.3-0.1,1.6C389.8,102.8,389.6,102.9,389.3,102.9 M390.6,100.9c0-1.3-0.2-2-0.6-2.3
		c-0.2-0.1-0.4-0.2-0.7-0.2c-0.3,0-0.6,0.1-0.7,0.2c-0.2,0.1-0.3,0.4-0.4,0.7c-0.1,0.4-0.2,0.9-0.2,1.5c0,2,0.4,2.6,1.3,2.6
		C390.2,103.5,390.6,102.9,390.6,100.9 M386.1,102c0,0.7-0.1,0.9-0.7,0.9c-0.5,0-0.7-0.3-0.7-1.8c0.2-0.1,0.4-0.1,0.7-0.1
		c0.3,0,0.5,0.1,0.6,0.2C386.1,101.4,386.1,101.6,386.1,102 M386.7,98.6c-0.3-0.1-0.6-0.2-1-0.2c-1.1,0-1.6,0.5-1.6,2.5
		c0,2,0.3,2.6,1.4,2.6c0.5,0,0.8-0.1,1-0.3c0.2-0.2,0.3-0.6,0.3-1.2c0-1.1-0.3-1.5-1.3-1.5c-0.2,0-0.4,0-0.7,0.1
		c0.1-1.3,0.3-1.5,0.9-1.5c0.3,0,0.6,0.1,0.8,0.2L386.7,98.6z M382.6,101.5h-1c0.3-0.8,0.6-1.6,1-2.3V101.5z M382.4,98.5
		c-0.5,1-1,2.1-1.5,3.4v0.2h1.7v1.4h0.6v-1.4h0.5v-0.6h-0.5v-3H382.4z"/>
	<path class="st7" d="M423.2,84H421v2.6c0.3-0.1,0.6-0.1,0.9-0.1c0.3,0,0.5,0.1,0.6,0.2c0.1,0.1,0.1,0.4,0.1,0.8
		c0,0.4-0.1,0.6-0.2,0.7c-0.1,0.1-0.3,0.2-0.6,0.2c-0.3,0-0.6-0.1-0.9-0.2l-0.2,0.6c0.4,0.1,0.7,0.2,1.1,0.2c0.5,0,0.9-0.1,1.1-0.3
		c0.2-0.2,0.3-0.6,0.3-1.2c0-0.5-0.1-0.9-0.3-1.2c-0.2-0.2-0.5-0.3-1-0.3c-0.1,0-0.3,0-0.4,0v-1.4h1.5V84z M417.8,87.5
		c0,1,0.4,1.4,1.3,1.4s1.3-0.4,1.3-1.4c0-0.8-0.2-1.2-0.8-1.3c0.6-0.1,0.8-0.5,0.8-1.2c0-0.8-0.3-1.2-1.2-1.2
		c-0.9,0-1.2,0.4-1.2,1.2c0,0.7,0.2,1.1,0.8,1.2C418,86.3,417.8,86.7,417.8,87.5 M419.7,85.2c0,0.6-0.2,0.8-0.6,0.8
		s-0.6-0.2-0.6-0.8c0-0.6,0.1-0.8,0.6-0.8S419.7,84.6,419.7,85.2 M419.7,87.5c0,0.7-0.2,0.9-0.7,0.9s-0.7-0.2-0.7-0.9
		c0-0.7,0.2-1,0.7-1S419.7,86.8,419.7,87.5 M416,88.3c-0.5,0-0.7-0.4-0.7-2c0-1.7,0.1-1.9,0.7-1.9c0.5,0,0.7,0.2,0.7,1.9
		c0,0.8,0,1.3-0.1,1.6C416.5,88.2,416.3,88.3,416,88.3 M417.3,86.3c0-1.3-0.2-2-0.6-2.3c-0.2-0.1-0.4-0.2-0.7-0.2
		c-0.3,0-0.6,0.1-0.7,0.2c-0.2,0.1-0.3,0.4-0.4,0.7c-0.1,0.4-0.2,0.9-0.2,1.5c0,2,0.4,2.6,1.3,2.6C416.9,88.9,417.3,88.4,417.3,86.3
		 M410.9,84.6c0.3-0.1,0.6-0.2,0.9-0.2c0.6,0,0.7,0.2,0.7,0.7c0,0.6-0.2,0.8-0.7,0.8h-0.5v0.6h0.5c0.5,0,0.7,0.2,0.7,0.9
		c0,0.3-0.1,0.6-0.2,0.7c-0.1,0.1-0.3,0.2-0.6,0.2c-0.3,0-0.6-0.1-0.9-0.2l-0.2,0.6c0.3,0.1,0.7,0.2,1.2,0.2c1,0,1.4-0.4,1.4-1.4
		c0-0.8-0.2-1.2-0.9-1.3c0.6-0.1,0.8-0.5,0.8-1.2c0-0.8-0.3-1.2-1.3-1.2c-0.4,0-0.8,0.1-1.2,0.2L410.9,84.6z M410.1,84H408v2.6
		c0.3-0.1,0.6-0.1,0.9-0.1c0.3,0,0.5,0.1,0.6,0.2c0.1,0.1,0.1,0.4,0.1,0.8c0,0.4-0.1,0.6-0.2,0.7c-0.1,0.1-0.3,0.2-0.6,0.2
		c-0.3,0-0.6-0.1-0.9-0.2l-0.2,0.6c0.4,0.1,0.7,0.2,1.1,0.2c0.5,0,0.9-0.1,1.1-0.3c0.2-0.2,0.3-0.6,0.3-1.2c0-0.5-0.1-0.9-0.3-1.2
		c-0.2-0.2-0.5-0.3-1-0.3c-0.1,0-0.3,0-0.4,0v-1.4h1.5V84z"/>
	<path class="st7" d="M449,62.9h-1c0.3-0.8,0.6-1.6,1-2.3V62.9z M448.7,59.9c-0.5,1-1,2.1-1.5,3.4v0.2h1.7v1.4h0.6v-1.4h0.5v-0.6
		h-0.5v-3H448.7z M445.9,62.9h-1c0.3-0.8,0.6-1.6,1-2.3V62.9z M445.7,59.9c-0.5,1-1,2.1-1.5,3.4v0.2h1.7v1.4h0.6v-1.4h0.5v-0.6h-0.5
		v-3H445.7z M441.4,60.6c0.3-0.1,0.6-0.2,0.9-0.2c0.6,0,0.7,0.2,0.7,0.7c0,0.6-0.2,0.8-0.7,0.8h-0.5v0.6h0.5c0.5,0,0.7,0.2,0.7,0.9
		c0,0.3-0.1,0.6-0.2,0.7c-0.1,0.1-0.3,0.2-0.6,0.2c-0.3,0-0.6-0.1-0.9-0.2l-0.2,0.6c0.3,0.1,0.7,0.2,1.2,0.2c1,0,1.4-0.4,1.4-1.4
		c0-0.8-0.2-1.2-0.9-1.3c0.6-0.1,0.8-0.5,0.8-1.2c0-0.8-0.4-1.2-1.3-1.2c-0.4,0-0.8,0.1-1.2,0.2L441.4,60.6z M439.2,59.7l-1.6,0.9
		l0.2,0.5l0.8-0.5v4.1h0.6V59.7z M436.3,63.4c0,0.7-0.1,0.9-0.7,0.9c-0.5,0-0.7-0.3-0.7-1.8c0.2-0.1,0.4-0.1,0.7-0.1
		c0.3,0,0.5,0.1,0.6,0.2C436.3,62.7,436.3,63,436.3,63.4 M436.9,60c-0.3-0.1-0.6-0.2-1-0.2c-1.1,0-1.6,0.5-1.6,2.5
		c0,2,0.3,2.6,1.4,2.6c0.5,0,0.8-0.1,1-0.3c0.2-0.2,0.3-0.6,0.3-1.2c0-1.1-0.3-1.5-1.3-1.5c-0.2,0-0.4,0-0.7,0.1
		c0.1-1.3,0.3-1.5,0.9-1.5c0.3,0,0.6,0.1,0.8,0.2L436.9,60z"/>
	<path class="st7" d="M474.3,107.6v0.6h1.9c-0.2,0.5-0.5,1.2-0.7,2s-0.5,1.6-0.7,2.3h0.7c0.2-0.7,0.4-1.6,0.7-2.5
		c0.3-0.9,0.6-1.7,0.8-2.2v-0.2H474.3z M471.2,108.3c0.3-0.1,0.6-0.2,0.9-0.2c0.6,0,0.7,0.2,0.7,0.7c0,0.6-0.2,0.8-0.7,0.8h-0.5v0.6
		h0.5c0.5,0,0.7,0.2,0.7,0.9c0,0.3-0.1,0.6-0.2,0.7c-0.1,0.1-0.3,0.2-0.6,0.2c-0.3,0-0.6-0.1-0.9-0.2l-0.2,0.6
		c0.3,0.1,0.7,0.2,1.2,0.2c1,0,1.4-0.4,1.4-1.4c0-0.8-0.2-1.2-0.9-1.3c0.6-0.1,0.8-0.5,0.8-1.2c0-0.8-0.4-1.2-1.3-1.2
		c-0.4,0-0.8,0.1-1.2,0.2L471.2,108.3z M468.9,112c0.5-0.5,0.9-1,1.1-1.3c0.2-0.3,0.4-0.6,0.5-0.8c0.1-0.2,0.1-0.5,0.1-0.9
		c0-1-0.4-1.4-1.3-1.4c-0.4,0-0.8,0.1-1.1,0.2l0.2,0.6c0.3-0.1,0.6-0.2,0.9-0.2c0.5,0,0.7,0.2,0.7,0.8c0,0.3,0,0.5-0.1,0.7
		c-0.1,0.2-0.2,0.5-0.5,0.8c-0.3,0.3-0.7,0.8-1.3,1.5v0.5h2.5V112H468.9z M466.5,107.6h-2.1v2.6c0.3-0.1,0.6-0.1,0.9-0.1
		c0.3,0,0.5,0.1,0.6,0.2c0.1,0.1,0.1,0.4,0.1,0.8c0,0.4-0.1,0.6-0.2,0.7c-0.1,0.1-0.3,0.2-0.6,0.2c-0.3,0-0.6-0.1-0.9-0.2l-0.2,0.6
		c0.4,0.1,0.7,0.2,1.1,0.2c0.5,0,0.9-0.1,1.1-0.3c0.2-0.2,0.3-0.6,0.3-1.2c0-0.5-0.1-0.9-0.3-1.2s-0.5-0.3-1-0.3c-0.1,0-0.3,0-0.4,0
		v-1.4h1.5V107.6z M461.9,112c0.5-0.5,0.9-1,1.1-1.3c0.2-0.3,0.4-0.6,0.5-0.8c0.1-0.2,0.1-0.5,0.1-0.9c0-1-0.4-1.4-1.3-1.4
		c-0.4,0-0.8,0.1-1.1,0.2l0.2,0.6c0.3-0.1,0.6-0.2,0.9-0.2c0.5,0,0.7,0.2,0.7,0.8c0,0.3,0,0.5-0.1,0.7c-0.1,0.2-0.2,0.5-0.5,0.8
		c-0.3,0.3-0.7,0.8-1.3,1.5v0.5h2.5V112H461.9z"/>
	<path class="st8" d="M475.5,79.5c-0.5,0-0.7-0.4-0.7-2c0-1.7,0.1-1.9,0.7-1.9c0.5,0,0.7,0.2,0.7,1.9c0,0.8,0,1.3-0.1,1.6
		C475.9,79.3,475.8,79.5,475.5,79.5 M476.8,77.5c0-1.3-0.2-2-0.6-2.3c-0.2-0.1-0.4-0.2-0.7-0.2c-0.3,0-0.6,0.1-0.7,0.2
		c-0.2,0.1-0.3,0.4-0.4,0.7s-0.2,0.9-0.2,1.5c0,2,0.4,2.6,1.3,2.6C476.4,80.1,476.8,79.5,476.8,77.5 M472.4,79.5
		c-0.5,0-0.7-0.4-0.7-2c0-1.7,0.1-1.9,0.7-1.9c0.5,0,0.7,0.2,0.7,1.9c0,0.8,0,1.3-0.1,1.6C472.9,79.3,472.7,79.5,472.4,79.5
		 M473.8,77.5c0-1.3-0.2-2-0.6-2.3c-0.2-0.1-0.4-0.2-0.7-0.2c-0.3,0-0.6,0.1-0.7,0.2c-0.2,0.1-0.3,0.4-0.4,0.7s-0.2,0.9-0.2,1.5
		c0,2,0.4,2.6,1.3,2.6C473.3,80.1,473.7,79.5,473.8,77.5 M470.5,75.1h-2.1v2.6c0.3-0.1,0.6-0.1,0.9-0.1c0.3,0,0.5,0.1,0.6,0.2
		c0.1,0.1,0.1,0.4,0.1,0.8c0,0.4-0.1,0.6-0.2,0.7c-0.1,0.1-0.3,0.2-0.6,0.2c-0.3,0-0.6-0.1-0.9-0.2l-0.2,0.6
		c0.4,0.1,0.7,0.2,1.1,0.2c0.5,0,0.9-0.1,1.1-0.3c0.2-0.2,0.3-0.6,0.3-1.2c0-0.5-0.1-0.9-0.3-1.2c-0.2-0.2-0.5-0.3-1-0.3
		c-0.1,0-0.3,0-0.4,0v-1.4h1.5V75.1z M465.7,78.1h-1c0.3-0.8,0.6-1.6,1-2.3V78.1z M465.5,75.1c-0.5,1-1,2.1-1.5,3.4v0.2h1.7V80h0.6
		v-1.4h0.5v-0.6h-0.5v-3H465.5z M463.5,75.1h-2.1v2.6c0.3-0.1,0.6-0.1,0.9-0.1c0.3,0,0.5,0.1,0.6,0.2c0.1,0.1,0.1,0.4,0.1,0.8
		c0,0.4-0.1,0.6-0.2,0.7c-0.1,0.1-0.3,0.2-0.6,0.2c-0.3,0-0.6-0.1-0.9-0.2l-0.2,0.6c0.4,0.1,0.7,0.2,1.1,0.2c0.5,0,0.9-0.1,1.1-0.3
		c0.2-0.2,0.3-0.6,0.3-1.2c0-0.5-0.1-0.9-0.3-1.2c-0.2-0.2-0.5-0.3-1-0.3c-0.1,0-0.3,0-0.4,0v-1.4h1.5V75.1z"/>
	<path class="st8" d="M114.6,224.5v-3.5h-0.7c-0.6,1.1-1.2,1.9-1.7,2.6v-2.6h-0.7v3.5h0.7c0.7-0.9,1.2-1.7,1.7-2.5v2.5H114.6z
		 M111,224.5c-0.5-1-1-1.6-1.2-1.7c-0.1-0.1-0.2-0.1-0.4-0.2c0.2-0.2,0.7-0.7,1.5-1.6h-0.8c-0.7,0.9-1.2,1.4-1.5,1.7v-1.7H108v3.5
		h0.7v-1.7c0.3,0,0.5,0.2,0.8,0.4c0.3,0.2,0.5,0.7,0.9,1.3H111z M107.4,221.5v-0.6h-3.3v0.6h1.3v3h0.7v-3H107.4z M101.9,224.7
		c-0.2,0.5-0.4,0.9-0.6,1.2h0.7c0.2-0.4,0.4-0.8,0.6-1.3c0.6-1.4,1-2.6,1.3-3.6h-0.7c-0.2,0.8-0.6,1.8-1,2.9c-0.3-1.2-0.6-2.1-1-2.9
		h-0.7C101,221.9,101.5,223.2,101.9,224.7 M100.2,223.8c-0.3,0.1-0.6,0.2-0.8,0.2c-0.4,0-0.7-0.1-0.8-0.3c-0.2-0.2-0.2-0.5-0.2-1
		c0-1.1,0.3-1.3,1.1-1.3c0.3,0,0.6,0.1,0.8,0.2l0.2-0.6c-0.3-0.1-0.7-0.2-1.1-0.2c-0.6,0-1,0.1-1.3,0.4c-0.3,0.3-0.4,0.7-0.4,1.4
		s0.1,1.2,0.4,1.5c0.3,0.3,0.7,0.4,1.3,0.4c0.4,0,0.8-0.1,1.1-0.2L100.2,223.8z M94.2,223.9c-0.3,0.1-0.5,0.1-0.8,0.1
		c-0.3,0-0.5,0-0.6-0.1s-0.2-0.3-0.2-0.6c0-0.3,0.1-0.4,0.2-0.5c0.1-0.1,0.3-0.1,0.6-0.1c0.3,0,0.6,0,0.8,0.1V223.9z M94.8,222.2
		c0-0.5-0.1-0.9-0.3-1.1c-0.2-0.2-0.6-0.3-1.2-0.3c-0.4,0-0.9,0.1-1.3,0.2l0.1,0.6c0.3-0.1,0.6-0.2,1.1-0.2c0.4,0,0.7,0.1,0.8,0.2
		c0.1,0.1,0.2,0.4,0.2,0.7c-0.3-0.1-0.7-0.1-0.9-0.1c-0.5,0-0.8,0.1-1,0.2c-0.2,0.2-0.4,0.5-0.4,0.9c0,0.5,0.1,0.8,0.3,0.9
		c0.2,0.2,0.6,0.3,1.1,0.3c0.6,0,1.1-0.1,1.5-0.3V222.2z M90.1,222.6c0.6-0.1,0.9-0.4,0.9-0.9c0-0.6-0.4-0.9-1.6-0.9
		c-0.4,0-0.8,0-1.2,0.1l0.2,0.6c0.3-0.1,0.6-0.1,1-0.1c0.4,0,0.7,0,0.8,0.1c0.1,0.1,0.2,0.2,0.2,0.3c0,0.3-0.2,0.5-0.8,0.5h-0.5v0.5
		h0.5c0.7,0,0.9,0.2,0.9,0.6c0,0.4-0.3,0.6-1.1,0.6c-0.4,0-0.7,0-1-0.2l-0.2,0.6c0.4,0.1,0.8,0.1,1.2,0.1c1.2,0,1.7-0.3,1.7-1.1
		C91.1,222.9,90.7,222.6,90.1,222.6 M84.8,224.5h0.7v-3.5h-0.7V224.5z M82,220.9h-0.7v3.5h2c0.8,0,1.1-0.3,1.1-1.1
		c0-0.7-0.4-1.1-1.1-1.1H82V220.9z M82,224v-1.1h1.2c0.3,0,0.5,0.1,0.5,0.5c0,0.4-0.1,0.6-0.5,0.6H82z M80.7,221.5v-0.6h-3.3v0.6
		h1.3v3h0.7v-3H80.7z M74.4,222.7c0-0.5,0.1-0.9,0.2-1.1c0.1-0.2,0.4-0.2,0.8-0.2c0.4,0,0.6,0.1,0.8,0.2s0.2,0.5,0.2,1.1
		c0,0.5-0.1,0.9-0.2,1.1c-0.1,0.2-0.4,0.3-0.7,0.3c-0.4,0-0.6-0.1-0.8-0.3C74.5,223.6,74.4,223.2,74.4,222.7 M75.3,224.6
		c0.6,0,1-0.1,1.3-0.4c0.3-0.3,0.4-0.8,0.4-1.5c0-0.7-0.1-1.2-0.4-1.4c-0.3-0.3-0.7-0.4-1.3-0.4c-0.6,0-1,0.1-1.3,0.4
		c-0.3,0.3-0.4,0.7-0.4,1.4c0,0.7,0.1,1.2,0.4,1.5C74.3,224.4,74.8,224.6,75.3,224.6 M70.4,221.4c0-0.4,0.1-0.7,0.3-0.9
		s0.4-0.3,0.8-0.3c0.6-0.1,1-0.1,1.3-0.3v-0.6c-0.3,0.1-0.7,0.2-1.3,0.3c-0.3,0-0.6,0.1-0.8,0.2c-0.2,0.1-0.4,0.2-0.5,0.4
		c-0.3,0.4-0.4,1.1-0.4,2.2c0,0.8,0.1,1.3,0.4,1.6c0.2,0.3,0.6,0.5,1.2,0.5c0.6,0,1-0.1,1.3-0.4c0.3-0.3,0.4-0.7,0.4-1.4
		c0-0.7-0.1-1.1-0.4-1.4c-0.2-0.3-0.6-0.4-1.1-0.4C70.9,221,70.6,221.1,70.4,221.4 M70.4,222.8c0-0.5,0.1-0.8,0.2-1
		c0.1-0.2,0.4-0.3,0.7-0.3c0.3,0,0.5,0.1,0.7,0.3c0.1,0.2,0.2,0.5,0.2,1c0,0.5-0.1,0.8-0.2,1c-0.1,0.2-0.4,0.2-0.7,0.2
		C70.7,224,70.4,223.7,70.4,222.8 M68.2,223.9c-0.3,0.1-0.5,0.1-0.8,0.1c-0.3,0-0.5,0-0.6-0.1c-0.1-0.1-0.2-0.3-0.2-0.6
		c0-0.3,0.1-0.4,0.2-0.5c0.1-0.1,0.3-0.1,0.6-0.1c0.3,0,0.6,0,0.8,0.1V223.9z M68.8,222.2c0-0.5-0.1-0.9-0.4-1.1
		c-0.2-0.2-0.6-0.3-1.2-0.3c-0.4,0-0.9,0.1-1.3,0.2l0.1,0.6c0.3-0.1,0.6-0.2,1.1-0.2c0.4,0,0.7,0.1,0.8,0.2c0.1,0.1,0.2,0.4,0.2,0.7
		c-0.3-0.1-0.7-0.1-0.9-0.1c-0.5,0-0.8,0.1-1,0.2c-0.2,0.2-0.4,0.5-0.4,0.9c0,0.5,0.1,0.8,0.3,0.9c0.2,0.2,0.6,0.3,1.1,0.3
		c0.6,0,1.1-0.1,1.5-0.3V222.2z M63.4,221.4c0.4,0,0.6,0.1,0.8,0.3c0.1,0.2,0.2,0.5,0.2,1c0,0.5-0.1,0.8-0.2,1
		c-0.1,0.2-0.4,0.3-0.7,0.3c-0.5,0-0.8-0.2-0.8-0.5v-2C62.8,221.5,63.1,221.4,63.4,221.4 M63.5,224.6c0.5,0,0.9-0.1,1.2-0.4
		c0.3-0.3,0.4-0.8,0.4-1.5c0-0.7-0.1-1.2-0.4-1.5c-0.3-0.3-0.7-0.4-1.3-0.4c-0.6,0-1.1,0.1-1.5,0.3v4.7h0.7v-1.5
		C62.8,224.5,63.1,224.6,63.5,224.6"/>
	<path class="st8" d="M110,213.6c-0.4,0-0.5-0.2-0.5-0.5c0-0.4,0.2-0.5,0.5-0.5h1.1v1.1H110z M109.8,211.9c-0.7,0-1.1,0.3-1.1,1
		c0,0.6,0.3,0.9,1,0.9c-0.2,0-0.4,0.2-0.6,0.4c-0.2,0.2-0.4,0.6-0.7,1.2h0.8c0.2-0.6,0.4-0.9,0.6-1.1c0.2-0.2,0.4-0.3,0.7-0.3h0.6
		v1.4h0.7v-3.5H109.8z M105.8,214.3c-0.3-0.8-0.7-1.6-1-2.4h-1v3.5h0.7v-2.9c0.3,0.8,0.7,1.6,1.1,2.6h0.5c0.3-0.9,0.7-1.8,1.1-2.6
		v2.9h0.7v-3.5h-1C106.5,212.7,106.1,213.5,105.8,214.3 M101.4,212.4c0.3,0,0.5,0.1,0.6,0.2c0.1,0.1,0.2,0.4,0.2,0.7h-1.7
		C100.6,212.6,100.8,212.4,101.4,212.4 M101.4,211.8c-1.1,0-1.6,0.5-1.6,1.9c0,0.7,0.1,1.2,0.4,1.5c0.3,0.3,0.7,0.4,1.3,0.4
		c0.4,0,0.8-0.1,1.2-0.2l-0.1-0.6c-0.3,0.1-0.7,0.2-1,0.2c-0.4,0-0.7-0.1-0.8-0.2c-0.2-0.2-0.2-0.5-0.2-0.9h2.4v-0.2
		c0-0.7-0.1-1.2-0.3-1.5S102,211.8,101.4,211.8 M97.4,212.4c0.4,0,0.6,0.1,0.8,0.3c0.1,0.2,0.2,0.5,0.2,1c0,0.5-0.1,0.8-0.2,1
		c-0.1,0.2-0.4,0.3-0.7,0.3c-0.5,0-0.8-0.2-0.8-0.5v-2C96.7,212.5,97,212.4,97.4,212.4 M97.4,215.6c0.5,0,0.9-0.1,1.2-0.4
		c0.3-0.3,0.4-0.8,0.4-1.5c0-0.7-0.1-1.2-0.4-1.5c-0.3-0.3-0.7-0.4-1.3-0.4c-0.6,0-1.1,0.1-1.5,0.3v4.7h0.7v-1.5
		C96.8,215.5,97.1,215.6,97.4,215.6 M94.1,213.6c0.6,0,0.8-0.3,0.8-0.8c0-0.5-0.2-0.8-1-0.8h-2v3.5H94c0.7,0,1-0.3,1-1
		C95,213.9,94.7,213.6,94.1,213.6 M92.6,213.4v-0.9h1.2c0.3,0,0.4,0.1,0.4,0.4c0,0.3-0.1,0.4-0.4,0.4H92.6z M92.6,214.9v-1.1h1.2
		c0.3,0,0.5,0.2,0.5,0.6c0,0.4-0.1,0.5-0.5,0.5H92.6z M87.7,212.4c0.3,0,0.5,0.1,0.6,0.2c0.1,0.1,0.2,0.4,0.2,0.7h-1.7
		C86.8,212.6,87,212.4,87.7,212.4 M87.6,211.8c-1.1,0-1.6,0.5-1.6,1.9c0,0.7,0.1,1.2,0.4,1.5c0.3,0.3,0.7,0.4,1.3,0.4
		c0.4,0,0.8-0.1,1.2-0.2l-0.1-0.6c-0.3,0.1-0.7,0.2-1,0.2c-0.4,0-0.7-0.1-0.8-0.2c-0.2-0.2-0.2-0.5-0.2-0.9h2.4v-0.2
		c0-0.7-0.1-1.2-0.4-1.5C88.6,212,88.2,211.8,87.6,211.8 M83.8,212.4c0.3,0,0.5,0.1,0.6,0.2c0.1,0.1,0.2,0.4,0.2,0.7h-1.7
		C82.9,212.6,83.2,212.4,83.8,212.4 M83.8,211.8c-1.1,0-1.6,0.5-1.6,1.9c0,0.7,0.1,1.2,0.4,1.5c0.3,0.3,0.7,0.4,1.3,0.4
		c0.4,0,0.8-0.1,1.2-0.2l-0.1-0.6c-0.3,0.1-0.7,0.2-1,0.2c-0.4,0-0.7-0.1-0.8-0.2c-0.2-0.2-0.2-0.5-0.2-0.9h2.4v-0.2
		c0-0.7-0.1-1.2-0.3-1.5C84.7,212,84.3,211.8,83.8,211.8 M80.6,215.5h0.7v-3.5h-0.7v1.4h-1.7v-1.4h-0.7v3.5h0.7v-1.6h1.7V215.5z
		 M76.4,214.9h-1.6c0.2-0.9,0.4-1.7,0.4-2.4h1.1V214.9z M73.7,216.4h0.5v-0.9H77v0.9h0.5l0.2-1.5h-0.7v-3h-2.4c0,1-0.2,2-0.5,3h-0.6
		L73.7,216.4z M71.7,212.4c0.3,0,0.5,0.1,0.6,0.2c0.1,0.1,0.2,0.4,0.2,0.7h-1.7C70.8,212.6,71,212.4,71.7,212.4 M71.7,211.8
		c-1.1,0-1.6,0.5-1.6,1.9c0,0.7,0.1,1.2,0.4,1.5c0.3,0.3,0.7,0.4,1.3,0.4c0.4,0,0.8-0.1,1.2-0.2l-0.1-0.6c-0.3,0.1-0.7,0.2-1,0.2
		c-0.4,0-0.7-0.1-0.8-0.2c-0.2-0.2-0.2-0.5-0.2-0.9h2.4v-0.2c0-0.7-0.1-1.2-0.4-1.5C72.6,212,72.2,211.8,71.7,211.8 M67.6,212.4
		c0.4,0,0.6,0.1,0.8,0.3c0.1,0.2,0.2,0.5,0.2,1c0,0.5-0.1,0.8-0.2,1c-0.1,0.2-0.4,0.3-0.7,0.3c-0.5,0-0.8-0.2-0.8-0.5v-2
		C67,212.5,67.2,212.4,67.6,212.4 M67.7,215.6c0.5,0,0.9-0.1,1.2-0.4c0.3-0.3,0.4-0.8,0.4-1.5c0-0.7-0.1-1.2-0.4-1.5
		c-0.3-0.3-0.7-0.4-1.3-0.4c-0.6,0-1.1,0.1-1.5,0.3v4.7h0.7v-1.5C67,215.5,67.3,215.6,67.7,215.6 M61.8,213c0,1,0.2,1.6,0.5,2
		c0.4,0.4,0.9,0.6,1.7,0.6c0.5,0,1-0.1,1.4-0.2l-0.2-0.6c-0.3,0.1-0.7,0.2-1.1,0.2c-1.1,0-1.6-0.3-1.6-1.9c0-0.8,0.1-1.3,0.4-1.6
		c0.3-0.3,0.6-0.3,1.2-0.3c0.4,0,0.8,0.1,1.1,0.2l0.2-0.6c-0.4-0.1-0.9-0.2-1.4-0.2c-0.8,0-1.3,0.1-1.7,0.5
		C62,211.4,61.8,212,61.8,213"/>
	<path class="st8" d="M146.9,214.9h-1.4c0.4-1.1,0.9-2.2,1.4-3.2V214.9z M146.6,210.7c-0.8,1.4-1.5,3-2.1,4.8v0.2h2.4v1.9h0.9v-1.9
		h0.7v-0.8h-0.7v-4.3H146.6z M140.5,211.6c0.4-0.2,0.8-0.3,1.3-0.3c0.8,0,1.1,0.3,1.1,1.1c0,0.8-0.3,1.1-1,1.1h-0.7v0.8h0.7
		c0.8,0,1,0.3,1,1.3c0,0.5-0.1,0.8-0.2,1c-0.2,0.2-0.5,0.3-0.9,0.3c-0.5,0-0.9-0.1-1.3-0.2l-0.2,0.8c0.5,0.2,1,0.3,1.7,0.3
		c1.4,0,2-0.5,2-2c0-1.1-0.3-1.8-1.2-1.8c0.9-0.1,1.1-0.7,1.1-1.7c0-1.2-0.5-1.7-1.9-1.7c-0.6,0-1.1,0.1-1.6,0.3L140.5,211.6z
		 M139.1,212.6c-0.4,0-0.5,0.1-0.5,0.6c0,0.5,0.1,0.6,0.5,0.6c0.4,0,0.6-0.1,0.6-0.6C139.6,212.6,139.5,212.6,139.1,212.6
		 M139.1,216.5c-0.4,0-0.5,0.1-0.5,0.6c0,0.5,0.1,0.6,0.5,0.6c0.4,0,0.6-0.1,0.6-0.6C139.6,216.6,139.5,216.5,139.1,216.5
		 M136.3,214.9h-1.4c0.4-1.1,0.9-2.2,1.4-3.2V214.9z M136,210.7c-0.8,1.4-1.5,3-2.1,4.8v0.2h2.4v1.9h0.9v-1.9h0.7v-0.8h-0.7v-4.3
		H136z"/>
</g>
<rect x="62" y="236.1" class="st1" width="5.4" height="77.8"/>
<rect x="89.3" y="236.1" class="st1" width="5.4" height="77.8"/>
<rect x="116.2" y="236.1" class="st1" width="5.4" height="77.8"/>
<rect x="142.9" y="236.1" class="st1" width="5.4" height="77.8"/>
<rect x="61.9" y="289" class="st9" width="5.6" height="25"/>
<rect x="61.9" y="289" class="st10" width="5.6" height="25"/>
<rect x="89.1" y="274.4" class="st9" width="5.6" height="39.6"/>
<rect x="89.1" y="274.4" class="st10" width="5.6" height="39.6"/>
<rect x="116.1" y="259.5" class="st9" width="5.6" height="54.5"/>
<rect x="116.1" y="259.5" class="st10" width="5.6" height="54.5"/>
<rect x="142.7" y="254.4" class="st2" width="5.6" height="59.6"/>
<rect x="142.7" y="254.4" class="st3" width="5.6" height="59.6"/>
<g>
	<defs>
		<rect id="SVGID_7_" x="42.5" y="30" width="448.5" height="298.7"/>
	</defs>
	<clipPath id="SVGID_8_">
		<use xlink:href="#SVGID_7_"  style="overflow:visible;"/>
	</clipPath>
	<path class="st11" d="M149.5,248.3h-1c0.3-0.8,0.6-1.6,1-2.3V248.3z M149.3,245.3c-0.5,1-1,2.1-1.5,3.4v0.2h1.7v1.4h0.6v-1.4h0.5
		v-0.6h-0.5v-3H149.3z M145,246c0.3-0.1,0.6-0.2,0.9-0.2c0.6,0,0.7,0.2,0.7,0.7c0,0.6-0.2,0.8-0.7,0.8h-0.5v0.6h0.5
		c0.5,0,0.7,0.2,0.7,0.9c0,0.3-0.1,0.6-0.2,0.7s-0.3,0.2-0.6,0.2c-0.3,0-0.6-0.1-0.9-0.2l-0.2,0.6c0.3,0.1,0.7,0.2,1.2,0.2
		c1,0,1.4-0.4,1.4-1.4c0-0.8-0.2-1.2-0.9-1.3c0.6-0.1,0.8-0.5,0.8-1.2c0-0.8-0.4-1.2-1.3-1.2c-0.4,0-0.8,0.1-1.2,0.2L145,246z
		 M144,246.6c-0.3,0-0.4,0.1-0.4,0.4c0,0.4,0.1,0.4,0.4,0.4c0.3,0,0.4-0.1,0.4-0.4C144.4,246.7,144.3,246.6,144,246.6 M144,249.4
		c-0.3,0-0.4,0.1-0.4,0.4c0,0.4,0.1,0.4,0.4,0.4c0.3,0,0.4-0.1,0.4-0.4C144.4,249.4,144.3,249.4,144,249.4 M142.1,248.3h-1
		c0.3-0.8,0.6-1.6,1-2.3V248.3z M141.9,245.3c-0.5,1-1,2.1-1.5,3.4v0.2h1.7v1.4h0.6v-1.4h0.5v-0.6h-0.5v-3H141.9z"/>
	<path class="st11" d="M122.5,252.6c-0.3,0-0.5-0.1-0.6-0.2c-0.1-0.1-0.1-0.4-0.1-0.7c0-0.7,0.1-1,0.7-1c0.5,0,0.7,0.1,0.7,1.2
		c0,0.3,0,0.5-0.1,0.7C122.9,252.5,122.7,252.6,122.5,252.6 M122.5,255.1c0.8-1,1.3-2,1.3-3.3c0-0.7-0.1-1.1-0.3-1.3
		c-0.2-0.2-0.5-0.3-1.1-0.3c-0.5,0-0.8,0.1-1,0.4c-0.2,0.2-0.3,0.7-0.3,1.3c0,0.5,0.1,0.9,0.3,1.1c0.2,0.2,0.5,0.3,1,0.3
		c0.2,0,0.3,0,0.5-0.1c-0.2,0.6-0.6,1.3-1.2,2H122.5z M118.9,254.5c0.5-0.5,0.9-1,1.1-1.3c0.2-0.3,0.4-0.6,0.5-0.8
		c0.1-0.2,0.1-0.5,0.1-0.9c0-1-0.4-1.4-1.3-1.4c-0.4,0-0.8,0.1-1.1,0.2l0.2,0.6c0.3-0.1,0.6-0.2,0.9-0.2c0.5,0,0.7,0.2,0.7,0.8
		c0,0.3,0,0.5-0.1,0.7c-0.1,0.2-0.2,0.5-0.5,0.8c-0.3,0.3-0.7,0.8-1.3,1.5v0.5h2.5v-0.6H118.9z M117.2,251.5c-0.3,0-0.4,0.1-0.4,0.4
		c0,0.4,0.1,0.4,0.4,0.4c0.3,0,0.4-0.1,0.4-0.4C117.6,251.6,117.5,251.5,117.2,251.5 M117.2,254.2c-0.3,0-0.4,0.1-0.4,0.4
		c0,0.4,0.1,0.4,0.4,0.4c0.3,0,0.4-0.1,0.4-0.4C117.6,254.3,117.5,254.2,117.2,254.2 M115.3,253.2h-1c0.3-0.8,0.6-1.6,1-2.3V253.2z
		 M115.1,250.2c-0.5,1-1,2.1-1.5,3.4v0.2h1.7v1.4h0.6v-1.4h0.5v-0.6h-0.5v-3H115.1z"/>
	<path class="st11" d="M96.6,269.1c0,0.7-0.1,0.9-0.7,0.9c-0.5,0-0.7-0.3-0.7-1.8c0.2-0.1,0.4-0.1,0.7-0.1c0.3,0,0.5,0.1,0.6,0.2
		C96.6,268.5,96.6,268.7,96.6,269.1 M97.2,265.7c-0.3-0.1-0.6-0.2-1-0.2c-1.1,0-1.6,0.5-1.6,2.5c0,2,0.3,2.6,1.4,2.6
		c0.5,0,0.8-0.1,1-0.3c0.2-0.2,0.3-0.6,0.3-1.2c0-1.1-0.3-1.5-1.3-1.5c-0.2,0-0.4,0-0.7,0.1c0.1-1.3,0.3-1.5,0.9-1.5
		c0.3,0,0.6,0.1,0.8,0.2L97.2,265.7z M93.1,268.6h-1c0.3-0.8,0.6-1.6,1-2.3V268.6z M92.9,265.6c-0.5,1-1,2.1-1.5,3.4v0.2h1.7v1.4
		h0.6v-1.4h0.5v-0.6h-0.5v-3H92.9z M90.6,266.9c-0.3,0-0.4,0.1-0.4,0.4c0,0.4,0.1,0.4,0.4,0.4c0.3,0,0.4-0.1,0.4-0.4
		C91,267,91,266.9,90.6,266.9 M90.6,269.7c-0.3,0-0.4,0.1-0.4,0.4c0,0.4,0.1,0.4,0.4,0.4c0.3,0,0.4-0.1,0.4-0.4
		C91,269.7,91,269.7,90.6,269.7 M87.3,266.3c0.3-0.1,0.6-0.2,0.9-0.2c0.6,0,0.7,0.2,0.7,0.7c0,0.6-0.2,0.8-0.7,0.8h-0.5v0.6h0.5
		c0.5,0,0.7,0.2,0.7,0.9c0,0.3-0.1,0.6-0.2,0.7s-0.3,0.2-0.6,0.2c-0.3,0-0.6-0.1-0.9-0.2l-0.2,0.6c0.3,0.1,0.7,0.2,1.2,0.2
		c1,0,1.4-0.4,1.4-1.4c0-0.8-0.2-1.2-0.9-1.3c0.6-0.1,0.8-0.5,0.8-1.2c0-0.8-0.3-1.2-1.3-1.2c-0.4,0-0.8,0.1-1.2,0.2L87.3,266.3z"/>
	<path class="st11" d="M67,279.3v0.6h1.9c-0.2,0.5-0.5,1.2-0.7,2s-0.5,1.6-0.7,2.3h0.7c0.2-0.7,0.4-1.6,0.7-2.5
		c0.3-0.9,0.6-1.7,0.8-2.2v-0.2H67z M65.2,283.6c-0.5,0-0.7-0.4-0.7-2c0-1.7,0.1-1.9,0.7-1.9c0.5,0,0.7,0.2,0.7,1.9
		c0,0.8,0,1.3-0.1,1.6C65.6,283.5,65.4,283.6,65.2,283.6 M66.5,281.6c0-1.3-0.2-2-0.6-2.3c-0.2-0.1-0.4-0.2-0.7-0.2
		s-0.6,0.1-0.7,0.2c-0.2,0.1-0.3,0.4-0.4,0.7c-0.1,0.4-0.2,0.9-0.2,1.5c0,2,0.4,2.6,1.3,2.6C66.1,284.2,66.4,283.7,66.5,281.6
		 M63,280.6c-0.3,0-0.4,0.1-0.4,0.4c0,0.4,0.1,0.4,0.4,0.4c0.3,0,0.4-0.1,0.4-0.4C63.3,280.6,63.3,280.6,63,280.6 M63,283.3
		c-0.3,0-0.4,0.1-0.4,0.4c0,0.4,0.1,0.4,0.4,0.4c0.3,0,0.4-0.1,0.4-0.4C63.3,283.4,63.3,283.3,63,283.3 M59.6,279.9
		c0.3-0.1,0.6-0.2,0.9-0.2c0.6,0,0.7,0.2,0.7,0.7c0,0.6-0.2,0.8-0.7,0.8h-0.5v0.6h0.5c0.5,0,0.7,0.2,0.7,0.9c0,0.3-0.1,0.6-0.2,0.7
		c-0.1,0.1-0.3,0.2-0.6,0.2c-0.3,0-0.6-0.1-0.9-0.2l-0.2,0.6c0.3,0.1,0.7,0.2,1.2,0.2c1,0,1.4-0.4,1.4-1.4c0-0.8-0.2-1.2-0.9-1.3
		c0.6-0.1,0.8-0.5,0.8-1.2c0-0.8-0.4-1.2-1.3-1.2c-0.4,0-0.8,0.1-1.2,0.2L59.6,279.9z"/>
	<path class="st12" d="M252.3,224.5h0.7v-3.5h-2.3c0,0.9-0.1,1.6-0.3,2.2c-0.2,0.5-0.4,0.8-0.6,0.8l0.1,0.7c0.5,0,0.8-0.4,1-1
		c0.2-0.6,0.3-1.3,0.4-2.1h1.1V224.5z M246.5,223.8l-0.6,1.8h0.6l0.8-1.8H246.5z M244.6,222.6c0.6,0,0.8-0.3,0.8-0.8
		c0-0.5-0.2-0.8-1-0.8h-2v3.5h2.1c0.7,0,1-0.3,1-1C245.5,222.9,245.2,222.6,244.6,222.6 M243.1,222.4v-0.9h1.2
		c0.3,0,0.4,0.1,0.4,0.4c0,0.3-0.1,0.4-0.4,0.4H243.1z M243.1,223.9v-1.1h1.2c0.3,0,0.5,0.2,0.5,0.6c0,0.4-0.1,0.5-0.5,0.5H243.1z
		 M238.9,222.7c0-0.5,0.1-0.9,0.2-1.1s0.4-0.2,0.8-0.2s0.6,0.1,0.8,0.2c0.1,0.2,0.2,0.5,0.2,1.1c0,0.5-0.1,0.9-0.2,1
		c-0.1,0.2-0.4,0.3-0.7,0.3s-0.6-0.1-0.8-0.3C239,223.6,238.9,223.2,238.9,222.7 M239.8,224.6c0.6,0,1-0.1,1.3-0.4
		c0.3-0.3,0.4-0.8,0.4-1.5c0-0.7-0.1-1.2-0.4-1.4c-0.3-0.3-0.7-0.4-1.3-0.4s-1,0.1-1.3,0.4c-0.3,0.3-0.4,0.7-0.4,1.4
		c0,0.7,0.1,1.2,0.4,1.5C238.8,224.4,239.3,224.6,239.8,224.6 M236.6,222.6c0.6,0,0.8-0.3,0.8-0.8c0-0.5-0.2-0.8-1-0.8h-2v3.5h2.1
		c0.7,0,1-0.3,1-1C237.4,222.9,237.2,222.6,236.6,222.6 M235,222.4v-0.9h1.2c0.3,0,0.4,0.1,0.4,0.4c0,0.3-0.1,0.4-0.4,0.4H235z
		 M235,223.9v-1.1h1.2c0.3,0,0.5,0.2,0.5,0.6c0,0.4-0.1,0.5-0.5,0.5H235z M233.3,224.5v-3.5h-0.7c-0.6,1.1-1.2,1.9-1.7,2.6v-2.6
		h-0.7v3.5h0.7c0.7-0.9,1.2-1.7,1.7-2.5v2.5H233.3z M228.7,224.5h0.7v-3.5H227c0,0.9-0.1,1.6-0.3,2.2c-0.2,0.5-0.4,0.8-0.6,0.8
		l0.1,0.7c0.5,0,0.8-0.4,1-1c0.2-0.6,0.3-1.3,0.4-2.1h1.1V224.5z M225.7,223.8c-0.3,0.1-0.6,0.2-0.8,0.2c-0.4,0-0.7-0.1-0.8-0.3
		c-0.2-0.2-0.2-0.5-0.2-1c0-1.1,0.3-1.3,1.1-1.3c0.3,0,0.6,0.1,0.8,0.2l0.2-0.6c-0.3-0.1-0.7-0.2-1-0.2c-0.6,0-1,0.1-1.3,0.4
		c-0.3,0.3-0.4,0.7-0.4,1.4c0,0.7,0.1,1.2,0.4,1.5c0.3,0.3,0.7,0.4,1.3,0.4c0.4,0,0.8-0.1,1-0.2L225.7,223.8z"/>
	<path class="st12" d="M242.6,214.3c-0.3-0.8-0.7-1.6-1-2.4h-1v3.5h0.7v-2.9c0.3,0.8,0.7,1.6,1.1,2.6h0.5c0.3-0.9,0.7-1.8,1.1-2.6
		v2.9h0.7v-3.5h-1C243.3,212.7,242.9,213.5,242.6,214.3 M238.2,212.4c0.3,0,0.5,0.1,0.6,0.2c0.1,0.1,0.2,0.4,0.2,0.7h-1.7
		C237.4,212.6,237.6,212.4,238.2,212.4 M238.2,211.8c-1.1,0-1.6,0.5-1.6,1.9c0,0.7,0.1,1.2,0.4,1.5c0.3,0.3,0.7,0.4,1.3,0.4
		c0.4,0,0.8-0.1,1.2-0.2l-0.1-0.6c-0.3,0.1-0.7,0.2-1,0.2c-0.4,0-0.7-0.1-0.8-0.2c-0.2-0.2-0.2-0.5-0.2-0.9h2.4v-0.2
		c0-0.7-0.1-1.2-0.3-1.5C239.2,212,238.8,211.8,238.2,211.8 M233.5,215v-1.1h1.2c0.3,0,0.5,0.1,0.5,0.5c0,0.4-0.1,0.6-0.5,0.6H233.5
		z M232.1,212.5h0.8v3h2c0.8,0,1.1-0.3,1.1-1.1c0-0.7-0.4-1.1-1.1-1.1h-1.3v-1.4h-1.4V212.5z M229.1,212.4c0-0.4,0.1-0.7,0.3-0.9
		c0.1-0.2,0.4-0.3,0.8-0.3c0.6-0.1,1-0.1,1.3-0.3v-0.6c-0.3,0.1-0.7,0.2-1.3,0.3c-0.3,0-0.6,0.1-0.8,0.2c-0.2,0.1-0.4,0.2-0.5,0.4
		c-0.3,0.4-0.4,1.1-0.4,2.2c0,0.8,0.1,1.3,0.4,1.6s0.6,0.5,1.2,0.5c0.6,0,1-0.1,1.3-0.4s0.4-0.7,0.4-1.4c0-0.7-0.1-1.1-0.4-1.4
		c-0.2-0.3-0.6-0.4-1.1-0.4C229.7,212,229.4,212.1,229.1,212.4 M229.2,213.8c0-0.5,0.1-0.8,0.2-1c0.1-0.2,0.4-0.3,0.7-0.3
		c0.3,0,0.5,0.1,0.7,0.3c0.1,0.2,0.2,0.5,0.2,1c0,0.5-0.1,0.8-0.2,1c-0.1,0.2-0.4,0.2-0.7,0.2C229.4,215,229.2,214.7,229.2,213.8
		 M225.4,214.9c-1.2,0-1.5-0.3-1.5-1.9c0-0.8,0.1-1.3,0.3-1.6c0.3-0.3,0.6-0.3,1.2-0.3c0.4,0,0.7,0,0.9,0.1c0.2,0.1,0.4,0.3,0.4,0.5
		c0.1,0.3,0.1,0.7,0.1,1.2c0,1.1-0.2,1.6-0.6,1.8C226.1,214.9,225.8,214.9,225.4,214.9 M227.6,213c0-1-0.2-1.6-0.6-2
		c-0.4-0.4-0.9-0.5-1.7-0.5c-0.8,0-1.3,0.1-1.7,0.5c-0.4,0.4-0.6,1-0.6,2c0,2,0.7,2.6,2.3,2.6c0.8,0,1.3-0.1,1.7-0.5
		C227.5,214.7,227.6,214,227.6,213"/>
	<path class="st12" d="M309.6,210.7h-3.1v3.7c0.4-0.1,0.8-0.2,1.3-0.2c0.4,0,0.7,0.1,0.8,0.3c0.1,0.2,0.2,0.6,0.2,1.1
		c0,0.5-0.1,0.8-0.2,1s-0.4,0.3-0.9,0.3c-0.4,0-0.8-0.1-1.2-0.2l-0.2,0.8c0.5,0.2,1.1,0.2,1.6,0.2c0.7,0,1.2-0.2,1.5-0.5
		c0.3-0.3,0.5-0.9,0.5-1.7c0-0.8-0.1-1.3-0.4-1.7s-0.8-0.5-1.4-0.5c-0.2,0-0.4,0-0.6,0v-2h2.2V210.7z M304.7,216.7l-0.5,2.6h0.8
		l0.8-2.6H304.7z M302.1,214.9h-1.4c0.4-1.2,0.9-2.2,1.4-3.2V214.9z M301.8,210.7c-0.8,1.4-1.5,3-2.1,4.8v0.2h2.4v1.9h0.9v-1.9h0.7
		v-0.8H303v-4.3H301.8z M295.6,210.7v0.8h2.6c-0.3,0.7-0.7,1.7-1,2.8c-0.4,1.1-0.7,2.3-1,3.3h1c0.2-1.1,0.6-2.2,1-3.6
		c0.4-1.3,0.8-2.4,1.1-3.2v-0.3H295.6z M292.3,216.8c0.8-0.8,1.3-1.4,1.6-1.8c0.4-0.5,0.6-0.9,0.7-1.2c0.1-0.4,0.2-0.8,0.2-1.3
		c0-1.5-0.6-2-1.9-2c-0.6,0-1.1,0.1-1.6,0.3l0.3,0.9c0.4-0.2,0.8-0.3,1.2-0.3c0.7,0,1,0.3,1,1.2c0,0.4,0,0.8-0.1,1.1
		c-0.1,0.3-0.3,0.7-0.7,1.1c-0.4,0.5-1,1.2-1.8,2.1v0.8h3.6v-0.8H292.3z"/>
</g>
<rect x="223.4" y="236.1" class="st1" width="5.4" height="77.8"/>
<rect x="250.3" y="236.1" class="st1" width="5.4" height="77.8"/>
<rect x="277.4" y="236.1" class="st1" width="5.4" height="77.8"/>
<rect x="304.2" y="236.1" class="st1" width="5.4" height="77.8"/>
<rect x="223.2" y="299" class="st2" width="5.6" height="15"/>
<rect x="223.2" y="299" class="st3" width="5.6" height="15"/>
<rect x="250.2" y="252.2" class="st2" width="5.6" height="61.8"/>
<rect x="250.2" y="252.2" class="st3" width="5.6" height="61.8"/>
<rect x="277.3" y="284.4" class="st2" width="5.6" height="29.6"/>
<rect x="277.3" y="284.4" class="st3" width="5.6" height="29.6"/>
<rect x="304.1" y="277" class="st13" width="5.6" height="36.9"/>
<rect x="304.1" y="277" class="st14" width="5.6" height="36.9"/>
<g>
	<defs>
		<rect id="SVGID_9_" x="42.5" y="30" width="448.5" height="298.7"/>
	</defs>
	<clipPath id="SVGID_10_">
		<use xlink:href="#SVGID_9_"  style="overflow:visible;"/>
	</clipPath>
	<path class="st15" d="M229.6,290.3l-1.6,0.9l0.2,0.5l0.8-0.5v4.1h0.6V290.3z M225.5,294.8c0.5-0.5,0.9-1,1.1-1.3
		c0.2-0.3,0.4-0.6,0.5-0.8c0.1-0.2,0.1-0.5,0.1-0.9c0-1-0.4-1.4-1.3-1.4c-0.4,0-0.8,0.1-1.1,0.2l0.2,0.6c0.3-0.1,0.6-0.2,0.9-0.2
		c0.5,0,0.7,0.2,0.7,0.8c0,0.3,0,0.5-0.1,0.7c-0.1,0.2-0.2,0.5-0.5,0.8c-0.3,0.3-0.7,0.8-1.3,1.5v0.5h2.5v-0.6H225.5z M222.5,294.8
		c0.5-0.5,0.9-1,1.1-1.3c0.2-0.3,0.4-0.6,0.5-0.8c0.1-0.2,0.1-0.5,0.1-0.9c0-1-0.4-1.4-1.3-1.4c-0.4,0-0.8,0.1-1.1,0.2l0.2,0.6
		c0.3-0.1,0.6-0.2,0.9-0.2c0.5,0,0.7,0.2,0.7,0.8c0,0.3,0,0.5-0.1,0.7c-0.1,0.2-0.2,0.5-0.5,0.8c-0.3,0.3-0.7,0.8-1.3,1.5v0.5h2.5
		v-0.6H222.5z"/>
	<path class="st15" d="M255.1,247.4c0,1,0.4,1.4,1.3,1.4s1.3-0.4,1.3-1.4c0-0.8-0.2-1.2-0.8-1.3c0.6-0.1,0.8-0.5,0.8-1.2
		c0-0.8-0.3-1.2-1.2-1.2c-0.9,0-1.2,0.4-1.2,1.2c0,0.7,0.2,1.1,0.8,1.2C255.3,246.1,255.1,246.6,255.1,247.4 M257,245
		c0,0.6-0.2,0.8-0.6,0.8s-0.6-0.2-0.6-0.8c0-0.6,0.1-0.8,0.6-0.8S257,244.5,257,245 M257.1,247.4c0,0.7-0.2,0.9-0.7,0.9
		s-0.7-0.2-0.7-0.9c0-0.7,0.2-1,0.7-1S257.1,246.7,257.1,247.4 M253.6,246.8h-1c0.3-0.8,0.6-1.6,1-2.3V246.8z M253.4,243.8
		c-0.5,1-1,2.1-1.5,3.4v0.2h1.7v1.4h0.6v-1.4h0.5v-0.6h-0.5v-3H253.4z M251.4,243.8h-2.1v2.6c0.3-0.1,0.6-0.1,0.9-0.1
		c0.3,0,0.5,0.1,0.6,0.2c0.1,0.1,0.1,0.4,0.1,0.8c0,0.3-0.1,0.6-0.2,0.7c-0.1,0.1-0.3,0.2-0.6,0.2c-0.3,0-0.6-0.1-0.9-0.2l-0.2,0.6
		c0.4,0.1,0.7,0.2,1.1,0.2c0.5,0,0.9-0.1,1.1-0.3c0.2-0.2,0.3-0.6,0.3-1.2c0-0.5-0.1-0.9-0.3-1.2c-0.2-0.2-0.5-0.3-1-0.3
		c-0.1,0-0.3,0-0.4,0v-1.4h1.5V243.8z"/>
	<path class="st15" d="M282.5,280.4c0.5-0.5,0.9-1,1.1-1.3c0.2-0.3,0.4-0.6,0.5-0.8c0.1-0.2,0.1-0.5,0.1-0.9c0-1-0.4-1.4-1.3-1.4
		c-0.4,0-0.8,0.1-1.1,0.2l0.2,0.6c0.3-0.1,0.6-0.2,0.9-0.2c0.5,0,0.7,0.2,0.7,0.8c0,0.3,0,0.5-0.1,0.7s-0.2,0.5-0.5,0.8
		c-0.3,0.3-0.7,0.8-1.3,1.5v0.5h2.5v-0.6H282.5z M280.7,279.5c0,0.7-0.1,0.9-0.7,0.9c-0.5,0-0.7-0.3-0.7-1.8
		c0.2-0.1,0.4-0.1,0.7-0.1c0.3,0,0.5,0.1,0.6,0.2C280.7,278.9,280.7,279.2,280.7,279.5 M281.3,276.1c-0.3-0.1-0.6-0.2-1-0.2
		c-1.1,0-1.6,0.5-1.6,2.5c0,2,0.3,2.6,1.4,2.6c0.5,0,0.8-0.1,1-0.3c0.2-0.2,0.3-0.6,0.3-1.2c0-1.1-0.3-1.5-1.3-1.5
		c-0.2,0-0.4,0-0.7,0.1c0.1-1.3,0.3-1.5,0.9-1.5c0.3,0,0.6,0.1,0.8,0.2L281.3,276.1z M276.4,280.4c0.5-0.5,0.9-1,1.1-1.3
		c0.2-0.3,0.4-0.6,0.5-0.8c0.1-0.2,0.1-0.5,0.1-0.9c0-1-0.4-1.4-1.3-1.4c-0.4,0-0.8,0.1-1.1,0.2l0.2,0.6c0.3-0.1,0.6-0.2,0.9-0.2
		c0.5,0,0.7,0.2,0.7,0.8c0,0.3,0,0.5-0.1,0.7s-0.2,0.5-0.5,0.8c-0.3,0.3-0.7,0.8-1.3,1.5v0.5h2.5v-0.6H276.4z"/>
	<path class="st15" d="M310.1,271.8h-1c0.3-0.8,0.6-1.6,1-2.3V271.8z M309.8,268.9c-0.5,1-1,2.1-1.5,3.4v0.2h1.7v1.4h0.6v-1.4h0.5
		v-0.6h-0.5v-3H309.8z M305.5,268.9v0.6h1.9c-0.2,0.5-0.5,1.2-0.7,2c-0.3,0.8-0.5,1.6-0.7,2.3h0.7c0.2-0.7,0.4-1.6,0.7-2.5
		c0.3-0.9,0.6-1.7,0.8-2.2v-0.2H305.5z M303.2,273.2c0.5-0.5,0.9-1,1.1-1.3c0.2-0.3,0.4-0.6,0.5-0.8c0.1-0.2,0.1-0.5,0.1-0.9
		c0-1-0.4-1.4-1.3-1.4c-0.4,0-0.8,0.1-1.1,0.2l0.2,0.6c0.3-0.1,0.6-0.2,0.9-0.2c0.5,0,0.7,0.2,0.7,0.8c0,0.3,0,0.5-0.1,0.7
		c-0.1,0.2-0.2,0.5-0.5,0.8c-0.3,0.3-0.7,0.8-1.3,1.5v0.5h2.5v-0.6H303.2z"/>
</g>
<rect x="386.4" y="236.1" class="st1" width="5.4" height="77.8"/>
<rect x="413.2" y="236.1" class="st1" width="5.4" height="77.8"/>
<rect x="440" y="236.1" class="st1" width="5.4" height="77.8"/>
<rect x="466.8" y="236.1" class="st1" width="5.4" height="77.8"/>
<g>
	<defs>
		<rect id="SVGID_11_" x="42.5" y="30" width="448.5" height="298.7"/>
	</defs>
	<clipPath id="SVGID_12_">
		<use xlink:href="#SVGID_11_"  style="overflow:visible;"/>
	</clipPath>
	<path class="st16" d="M433.7,216c-0.5-1.2-0.9-2.3-1.5-3.4h-1.4v5.1h0.9v-4.1c0.5,1.1,1,2.3,1.5,3.8h0.8c0.4-1.3,1-2.5,1.6-3.8v4.1
		h0.9v-5.1h-1.4C434.6,213.6,434.1,214.8,433.7,216 M430,217.7c-0.8-1.4-1.4-2.2-1.7-2.5c-0.1-0.1-0.3-0.2-0.6-0.3
		c0.3-0.2,1-1,2.1-2.3h-1.1c-1,1.2-1.8,2-2.2,2.4v-2.4h-0.9v5.1h0.9v-2.4c0.4,0.1,0.8,0.3,1.1,0.6c0.4,0.3,0.8,0.9,1.2,1.8H430z
		 M420.4,216.7l-0.8,2.6h0.9l1.1-2.6H420.4z M416,217.7h0.9v-4.2h2.4v-0.8H416V217.7z M412.7,213.2c0.4,0,0.7,0.1,0.9,0.3
		s0.3,0.5,0.3,1.1h-2.5C411.5,213.5,411.8,213.2,412.7,213.2 M412.7,212.4c-1.6,0-2.3,0.7-2.3,2.6c0,1,0.2,1.7,0.6,2.1
		c0.4,0.4,1,0.6,1.8,0.6c0.6,0,1.1-0.1,1.7-0.3l-0.2-0.8c-0.5,0.2-1,0.2-1.4,0.2c-0.6,0-0.9-0.1-1.2-0.3c-0.2-0.2-0.3-0.7-0.4-1.3
		h3.5v-0.2c0-1-0.2-1.7-0.5-2.1C414,212.6,413.5,212.4,412.7,212.4 M405.7,213.3c0.1-0.6,0.2-1,0.4-1.2s0.5-0.4,1.1-0.4
		c0.8-0.1,1.4-0.2,1.8-0.4v-0.9c-0.4,0.2-1,0.3-1.9,0.4c-0.5,0-0.8,0.1-1.1,0.2c-0.3,0.1-0.5,0.3-0.7,0.6c-0.4,0.6-0.6,1.5-0.6,3.2
		c0,1.1,0.2,1.9,0.5,2.3c0.4,0.4,0.9,0.7,1.7,0.7c0.8,0,1.4-0.2,1.8-0.6s0.6-1,0.6-2c0-1-0.2-1.6-0.5-2c-0.3-0.4-0.9-0.6-1.6-0.6
		C406.4,212.7,406,212.9,405.7,213.3 M405.7,215.2c0-0.7,0.1-1.1,0.3-1.4c0.2-0.2,0.5-0.4,1.1-0.4c0.5,0,0.8,0.1,1,0.4
		c0.2,0.2,0.3,0.7,0.3,1.4c0,0.7-0.1,1.2-0.3,1.4c-0.2,0.2-0.5,0.3-1.1,0.3C406,217,405.7,216.5,405.7,215.2 M399.8,215.1
		c0-0.8,0.1-1.3,0.3-1.5c0.2-0.2,0.6-0.3,1.1-0.3s0.9,0.1,1.1,0.3c0.2,0.2,0.3,0.7,0.3,1.5c0,0.8-0.1,1.3-0.3,1.5
		c-0.2,0.3-0.5,0.4-1.1,0.4s-0.9-0.1-1.1-0.4S399.8,215.9,399.8,215.1 M401.2,217.8c0.8,0,1.4-0.2,1.8-0.6c0.4-0.4,0.6-1.1,0.6-2.1
		c0-1-0.2-1.7-0.6-2.1c-0.4-0.4-1-0.6-1.8-0.6c-0.8,0-1.4,0.2-1.8,0.6c-0.4,0.4-0.6,1.1-0.6,2.1c0,1,0.2,1.7,0.6,2.1
		C399.7,217.6,400.3,217.8,401.2,217.8 M395.3,213.3c0.5,0,0.9,0.1,1.1,0.4c0.2,0.2,0.3,0.7,0.3,1.5c0,0.7-0.1,1.2-0.3,1.5
		c-0.2,0.3-0.5,0.4-1.1,0.4c-0.7,0-1.2-0.3-1.2-0.7v-2.8C394.4,213.3,394.8,213.3,395.3,213.3 M395.4,217.8c0.8,0,1.3-0.2,1.7-0.6
		c0.4-0.4,0.5-1.1,0.5-2.1c0-1-0.2-1.7-0.5-2.1c-0.4-0.4-1-0.6-1.8-0.6c-0.8,0-1.6,0.1-2.1,0.4v6.7h1v-2.1
		C394.5,217.7,394.9,217.8,395.4,217.8 M390.5,211.6v6.1h1v-7h-5.4v7h1v-6.1H390.5z"/>
</g>
<rect x="466.7" y="264.2" class="st6" width="5.4" height="39.2"/>
<rect x="439.9" y="252.9" class="st9" width="5.6" height="61.1"/>
<rect x="439.9" y="252.9" class="st10" width="5.6" height="61.1"/>
<rect x="413.1" y="273.2" class="st9" width="5.6" height="40.8"/>
<rect x="413.1" y="273.2" class="st10" width="5.6" height="40.8"/>
<rect x="466.7" y="303.5" class="st9" width="5.6" height="10.5"/>
<rect x="466.7" y="303.5" class="st10" width="5.6" height="10.5"/>
<rect x="386.3" y="286.3" class="st9" width="5.6" height="27.7"/>
<rect x="386.3" y="286.3" class="st10" width="5.6" height="27.7"/>
<g>
	<defs>
		<rect id="SVGID_13_" x="42.5" y="30" width="448.5" height="298.7"/>
	</defs>
	<clipPath id="SVGID_14_">
		<use xlink:href="#SVGID_13_"  style="overflow:visible;"/>
	</clipPath>
	<path class="st17" d="M422.4,265.5c0.3-0.1,0.6-0.2,0.9-0.2c0.6,0,0.7,0.2,0.7,0.7c0,0.6-0.2,0.8-0.7,0.8H423v0.6h0.5
		c0.5,0,0.7,0.2,0.7,0.9c0,0.3-0.1,0.6-0.2,0.7s-0.3,0.2-0.6,0.2c-0.3,0-0.6-0.1-0.9-0.2l-0.2,0.6c0.3,0.1,0.7,0.2,1.2,0.2
		c1,0,1.4-0.4,1.4-1.4c0-0.8-0.2-1.2-0.9-1.3c0.6-0.1,0.8-0.5,0.8-1.2c0-0.8-0.4-1.2-1.3-1.2c-0.4,0-0.8,0.1-1.2,0.2L422.4,265.5z
		 M419.3,268.4c0,1,0.4,1.4,1.3,1.4s1.3-0.4,1.3-1.4c0-0.8-0.2-1.2-0.8-1.3c0.6-0.1,0.8-0.5,0.8-1.2c0-0.8-0.3-1.2-1.2-1.2
		c-0.9,0-1.2,0.4-1.2,1.2c0,0.7,0.2,1.1,0.8,1.2C419.5,267.2,419.3,267.6,419.3,268.4 M421.2,266.1c0,0.6-0.2,0.8-0.6,0.8
		c-0.4,0-0.6-0.2-0.6-0.8c0-0.6,0.1-0.8,0.6-0.8C421,265.3,421.2,265.5,421.2,266.1 M421.3,268.4c0,0.7-0.2,0.9-0.7,0.9
		c-0.5,0-0.7-0.2-0.7-0.9c0-0.7,0.2-1,0.7-1C421.1,267.4,421.3,267.7,421.3,268.4 M417,269.2c0.5-0.5,0.9-1,1.1-1.3
		c0.2-0.3,0.4-0.6,0.5-0.8c0.1-0.2,0.1-0.5,0.1-0.9c0-1-0.4-1.4-1.3-1.4c-0.4,0-0.8,0.1-1.1,0.2l0.2,0.6c0.3-0.1,0.6-0.2,0.9-0.2
		c0.5,0,0.7,0.2,0.7,0.8c0,0.3,0,0.5-0.1,0.7c-0.1,0.2-0.2,0.5-0.5,0.8c-0.3,0.3-0.7,0.8-1.3,1.5v0.5h2.5v-0.6H417z M413.6,267.2
		c-0.3,0-0.5-0.1-0.6-0.2c-0.1-0.1-0.1-0.4-0.1-0.7c0-0.7,0.1-1,0.7-1c0.5,0,0.7,0.1,0.7,1.2c0,0.3,0,0.5-0.1,0.7
		C414.1,267.2,413.9,267.2,413.6,267.2 M413.7,269.7c0.8-1,1.3-2,1.3-3.3c0-0.7-0.1-1.1-0.3-1.3c-0.2-0.2-0.5-0.4-1.1-0.4
		c-0.5,0-0.8,0.1-1,0.4c-0.2,0.2-0.3,0.7-0.3,1.3c0,0.5,0.1,0.9,0.3,1.1c0.2,0.2,0.5,0.3,1,0.3c0.2,0,0.3,0,0.5-0.1
		c-0.2,0.6-0.6,1.3-1.2,2H413.7z M410.8,267.8h-1c0.3-0.8,0.6-1.6,1-2.3V267.8z M410.6,264.9c-0.5,1-1,2.1-1.5,3.4v0.2h1.7v1.4h0.6
		v-1.4h0.5v-0.6h-0.5v-3H410.6z M407,269.2c0.5-0.5,0.9-1,1.1-1.3c0.2-0.3,0.4-0.6,0.5-0.8c0.1-0.2,0.1-0.5,0.1-0.9
		c0-1-0.4-1.4-1.3-1.4c-0.4,0-0.8,0.1-1.1,0.2l0.2,0.6c0.3-0.1,0.6-0.2,0.9-0.2c0.5,0,0.7,0.2,0.7,0.8c0,0.3,0,0.5-0.1,0.7
		c-0.1,0.2-0.2,0.5-0.5,0.8c-0.3,0.3-0.7,0.8-1.3,1.5v0.5h2.5v-0.6H407z"/>
	<path class="st17" d="M450.7,249c0.5-0.5,0.9-1,1.1-1.3c0.2-0.3,0.4-0.6,0.5-0.8c0.1-0.2,0.1-0.5,0.1-0.9c0-1-0.4-1.4-1.3-1.4
		c-0.4,0-0.8,0.1-1.1,0.2l0.2,0.6c0.3-0.1,0.6-0.2,0.9-0.2c0.5,0,0.7,0.2,0.7,0.8c0,0.3,0,0.5-0.1,0.7c-0.1,0.2-0.2,0.5-0.5,0.8
		c-0.3,0.3-0.7,0.8-1.3,1.5v0.5h2.5V249H450.7z M446.9,248.2c0,1,0.4,1.4,1.3,1.4s1.3-0.4,1.3-1.4c0-0.8-0.2-1.2-0.8-1.3
		c0.6-0.1,0.8-0.5,0.8-1.2c0-0.8-0.3-1.2-1.2-1.2c-0.9,0-1.2,0.4-1.2,1.2c0,0.7,0.2,1.1,0.8,1.2C447.1,247,446.9,247.5,446.9,248.2
		 M448.8,245.9c0,0.6-0.2,0.8-0.6,0.8c-0.4,0-0.6-0.2-0.6-0.8c0-0.6,0.1-0.8,0.6-0.8C448.6,245.1,448.8,245.3,448.8,245.9
		 M448.8,248.2c0,0.7-0.2,0.9-0.7,0.9c-0.5,0-0.7-0.2-0.7-0.9c0-0.7,0.2-1,0.7-1C448.7,247.2,448.8,247.5,448.8,248.2 M443.9,244.7
		v0.6h1.9c-0.2,0.5-0.5,1.2-0.7,2c-0.3,0.8-0.5,1.6-0.7,2.3h0.7c0.2-0.7,0.4-1.6,0.7-2.5c0.3-0.9,0.6-1.7,0.8-2.2v-0.2H443.9z
		 M442.3,244.7h-2.1v2.6c0.3-0.1,0.6-0.1,0.9-0.1c0.3,0,0.5,0.1,0.6,0.2c0.1,0.1,0.1,0.4,0.1,0.8c0,0.3-0.1,0.6-0.2,0.7
		c-0.1,0.1-0.3,0.2-0.6,0.2c-0.3,0-0.6-0.1-0.9-0.2l-0.2,0.6c0.4,0.1,0.7,0.2,1.1,0.2c0.5,0,0.9-0.1,1.1-0.3
		c0.2-0.2,0.3-0.6,0.3-1.2c0-0.5-0.1-0.9-0.3-1.2c-0.2-0.2-0.5-0.3-1-0.3c-0.1,0-0.3,0-0.4,0v-1.4h1.5V244.7z M438.2,247.1
		c-0.3,0-0.5-0.1-0.6-0.2c-0.1-0.1-0.1-0.4-0.1-0.7c0-0.7,0.1-1,0.7-1c0.5,0,0.7,0.1,0.7,1.2c0,0.3,0,0.5-0.1,0.7
		C438.6,247,438.4,247.1,438.2,247.1 M438.2,249.6c0.8-1,1.3-2,1.3-3.3c0-0.7-0.1-1.1-0.3-1.3c-0.2-0.2-0.5-0.4-1.1-0.4
		c-0.5,0-0.8,0.1-1,0.4s-0.3,0.7-0.3,1.3c0,0.5,0.1,0.9,0.3,1.1c0.2,0.2,0.5,0.3,1,0.3c0.2,0,0.3,0,0.5-0.1c-0.2,0.6-0.6,1.3-1.2,2
		H438.2z M434.6,249c0.5-0.5,0.9-1,1.1-1.3c0.2-0.3,0.4-0.6,0.5-0.8c0.1-0.2,0.1-0.5,0.1-0.9c0-1-0.4-1.4-1.3-1.4
		c-0.4,0-0.8,0.1-1.1,0.2l0.2,0.6c0.3-0.1,0.6-0.2,0.9-0.2c0.5,0,0.7,0.2,0.7,0.8c0,0.3,0,0.5-0.1,0.7c-0.1,0.2-0.2,0.5-0.5,0.8
		c-0.3,0.3-0.7,0.8-1.3,1.5v0.5h2.5V249H434.6z"/>
	<path class="st18" d="M477,261.3c-0.5,0-0.7-0.4-0.7-2c0-1.7,0.1-1.9,0.7-1.9c0.5,0,0.7,0.2,0.7,1.9c0,0.8,0,1.3-0.1,1.6
		C477.5,261.1,477.3,261.3,477,261.3 M478.3,259.2c0-1.3-0.2-2-0.6-2.3c-0.2-0.1-0.4-0.2-0.7-0.2c-0.3,0-0.6,0.1-0.7,0.2
		c-0.2,0.1-0.3,0.4-0.4,0.7c-0.1,0.4-0.2,0.9-0.2,1.5c0,2,0.4,2.6,1.3,2.6C477.9,261.9,478.3,261.3,478.3,259.2 M474,261.3
		c-0.5,0-0.7-0.4-0.7-2c0-1.7,0.1-1.9,0.7-1.9c0.5,0,0.7,0.2,0.7,1.9c0,0.8,0,1.3-0.1,1.6C474.4,261.1,474.2,261.3,474,261.3
		 M475.3,259.2c0-1.3-0.2-2-0.6-2.3c-0.2-0.1-0.4-0.2-0.7-0.2c-0.3,0-0.6,0.1-0.7,0.2c-0.2,0.1-0.3,0.4-0.4,0.7
		c-0.1,0.4-0.2,0.9-0.2,1.5c0,2,0.4,2.6,1.3,2.6C474.9,261.9,475.3,261.3,475.3,259.2 M470.4,261.2c0.5-0.5,0.9-1,1.1-1.3
		c0.2-0.3,0.4-0.6,0.5-0.8c0.1-0.2,0.1-0.5,0.1-0.9c0-1-0.4-1.4-1.3-1.4c-0.4,0-0.8,0.1-1.1,0.2l0.2,0.6c0.3-0.1,0.6-0.2,0.9-0.2
		c0.5,0,0.7,0.2,0.7,0.8c0,0.3,0,0.5-0.1,0.7c-0.1,0.2-0.2,0.5-0.5,0.8c-0.3,0.3-0.7,0.8-1.3,1.5v0.5h2.5v-0.6H470.4z M467.3,259.8
		h-1c0.3-0.8,0.6-1.6,1-2.3V259.8z M467,256.9c-0.5,1-1,2.1-1.5,3.4v0.2h1.7v1.4h0.6v-1.4h0.5v-0.6h-0.5v-3H467z M464.7,260.3
		c0,0.7-0.1,0.9-0.7,0.9c-0.5,0-0.7-0.3-0.7-1.8c0.2-0.1,0.4-0.1,0.7-0.1c0.3,0,0.5,0.1,0.6,0.2C464.6,259.7,464.7,260,464.7,260.3
		 M465.2,256.9c-0.3-0.1-0.6-0.2-1-0.2c-1.1,0-1.6,0.5-1.6,2.5c0,2,0.3,2.6,1.4,2.6c0.5,0,0.8-0.1,1-0.3c0.2-0.2,0.3-0.6,0.3-1.2
		c0-1.1-0.3-1.5-1.3-1.5c-0.2,0-0.4,0-0.7,0.1c0.1-1.3,0.3-1.5,0.9-1.5c0.3,0,0.6,0.1,0.8,0.2L465.2,256.9z M460.4,261.2
		c0.5-0.5,0.9-1,1.1-1.3c0.2-0.3,0.4-0.6,0.5-0.8c0.1-0.2,0.1-0.5,0.1-0.9c0-1-0.4-1.4-1.3-1.4c-0.4,0-0.8,0.1-1.1,0.2l0.2,0.6
		c0.3-0.1,0.6-0.2,0.9-0.2c0.5,0,0.7,0.2,0.7,0.8c0,0.3,0,0.5-0.1,0.7c-0.1,0.2-0.2,0.5-0.5,0.8c-0.3,0.3-0.7,0.8-1.3,1.5v0.5h2.5
		v-0.6H460.4z"/>
	<path class="st17" d="M395.7,277.7v0.6h1.9c-0.2,0.5-0.5,1.2-0.7,2s-0.5,1.6-0.7,2.3h0.7c0.2-0.7,0.4-1.6,0.7-2.5
		c0.3-0.9,0.6-1.7,0.8-2.2v-0.2H395.7z M394.2,280.7h-1c0.3-0.8,0.6-1.6,1-2.3V280.7z M394,277.7c-0.5,1-1,2.1-1.5,3.4v0.2h1.7v1.4
		h0.6v-1.4h0.5v-0.6h-0.5v-3H394z M390.3,282c0.5-0.5,0.9-1,1.1-1.3c0.2-0.3,0.4-0.6,0.5-0.8c0.1-0.2,0.1-0.5,0.1-0.9
		c0-1-0.4-1.4-1.3-1.4c-0.4,0-0.8,0.1-1.1,0.2l0.2,0.6c0.3-0.1,0.6-0.2,0.9-0.2c0.5,0,0.7,0.2,0.7,0.8c0,0.3,0,0.5-0.1,0.7
		c-0.1,0.2-0.2,0.5-0.5,0.8c-0.3,0.3-0.7,0.8-1.3,1.5v0.5h2.5V282H390.3z M385.7,277.7v0.6h1.9c-0.2,0.5-0.5,1.2-0.7,2
		s-0.5,1.6-0.7,2.3h0.7c0.2-0.7,0.4-1.6,0.7-2.5c0.3-0.9,0.6-1.7,0.8-2.2v-0.2H385.7z M384.4,277.5l-1.6,0.9l0.2,0.5l0.8-0.5v4.1
		h0.6V277.5z M380.3,282c0.5-0.5,0.9-1,1.1-1.3c0.2-0.3,0.4-0.6,0.5-0.8c0.1-0.2,0.1-0.5,0.1-0.9c0-1-0.4-1.4-1.3-1.4
		c-0.4,0-0.8,0.1-1.1,0.2l0.2,0.6c0.3-0.1,0.6-0.2,0.9-0.2c0.5,0,0.7,0.2,0.7,0.8c0,0.3,0,0.5-0.1,0.7c-0.1,0.2-0.2,0.5-0.5,0.8
		c-0.3,0.3-0.7,0.8-1.3,1.5v0.5h2.5V282H380.3z"/>
	<path class="st17" d="M476.5,299.3c0.5-0.5,0.9-1,1.1-1.3c0.2-0.3,0.4-0.6,0.5-0.8c0.1-0.2,0.1-0.5,0.1-0.9c0-1-0.4-1.4-1.3-1.4
		c-0.4,0-0.8,0.1-1.1,0.2l0.2,0.6c0.3-0.1,0.6-0.2,0.9-0.2c0.5,0,0.7,0.2,0.7,0.8c0,0.3,0,0.5-0.1,0.7s-0.2,0.5-0.5,0.8
		c-0.3,0.3-0.7,0.8-1.3,1.5v0.5h2.5v-0.6H476.5z M472.8,295.6c0.3-0.1,0.6-0.2,0.9-0.2c0.6,0,0.7,0.2,0.7,0.7c0,0.6-0.2,0.8-0.7,0.8
		h-0.5v0.6h0.5c0.5,0,0.7,0.2,0.7,0.9c0,0.3-0.1,0.6-0.2,0.7c-0.1,0.1-0.3,0.2-0.6,0.2c-0.3,0-0.6-0.1-0.9-0.2l-0.2,0.6
		c0.3,0.1,0.7,0.2,1.2,0.2c1,0,1.4-0.4,1.4-1.4c0-0.8-0.2-1.2-0.9-1.3c0.6-0.1,0.8-0.5,0.8-1.2c0-0.8-0.3-1.2-1.3-1.2
		c-0.4,0-0.8,0.1-1.2,0.2L472.8,295.6z M471.4,294.8l-1.6,0.9l0.2,0.5l0.8-0.5v4.1h0.6V294.8z M467.5,294.8l-1.6,0.9l0.2,0.5
		l0.8-0.5v4.1h0.6V294.8z M462.6,298.5c0,1,0.4,1.4,1.3,1.4s1.3-0.4,1.3-1.4c0-0.8-0.2-1.2-0.8-1.3c0.6-0.1,0.8-0.5,0.8-1.2
		c0-0.8-0.3-1.2-1.2-1.2c-0.9,0-1.2,0.4-1.2,1.2c0,0.7,0.2,1.1,0.8,1.2C462.8,297.3,462.6,297.7,462.6,298.5 M464.5,296.2
		c0,0.6-0.2,0.8-0.6,0.8s-0.6-0.2-0.6-0.8c0-0.6,0.1-0.8,0.6-0.8S464.5,295.6,464.5,296.2 M464.6,298.5c0,0.7-0.2,0.9-0.7,0.9
		s-0.7-0.2-0.7-0.9c0-0.7,0.2-1,0.7-1S464.6,297.8,464.6,298.5 M461.4,294.8l-1.6,0.9l0.2,0.5l0.8-0.5v4.1h0.6V294.8z"/>
	<path class="st18" d="M148.1,36.4c-0.4,0.1-0.8,0.2-1.2,0.2c-0.5,0-0.8-0.1-0.9-0.2c-0.1-0.1-0.2-0.4-0.2-0.8
		c0-0.4,0.1-0.6,0.2-0.7c0.2-0.1,0.5-0.2,0.9-0.2c0.5,0,0.9,0,1.2,0.1V36.4z M149,34c0-0.8-0.2-1.3-0.5-1.5
		c-0.3-0.3-0.9-0.4-1.6-0.4c-0.6,0-1.2,0.1-1.9,0.3l0.2,0.8c0.4-0.1,0.9-0.2,1.5-0.2c0.6,0,0.9,0.1,1.1,0.3c0.2,0.2,0.3,0.5,0.3,1
		c-0.5-0.1-0.9-0.1-1.3-0.1c-0.7,0-1.2,0.1-1.5,0.3c-0.3,0.2-0.5,0.7-0.5,1.3c0,0.7,0.1,1.1,0.5,1.3c0.3,0.2,0.9,0.4,1.6,0.4
		c0.8,0,1.5-0.1,2.2-0.4V34z M143.8,36.3c-0.4,0.2-0.8,0.3-1.2,0.3c-0.5,0-0.9-0.1-1.2-0.4c-0.2-0.3-0.3-0.7-0.3-1.4
		c0-1.6,0.4-1.8,1.5-1.8c0.5,0,0.9,0.1,1.2,0.2l0.3-0.8c-0.4-0.2-0.9-0.2-1.5-0.2c-0.8,0-1.4,0.2-1.9,0.6c-0.4,0.4-0.6,1.1-0.6,2.1
		c0,1,0.2,1.7,0.6,2.1c0.4,0.4,1,0.6,1.9,0.6c0.6,0,1.1-0.1,1.5-0.3L143.8,36.3z M137.9,36.4c-0.4,0.1-0.8,0.2-1.2,0.2
		c-0.5,0-0.8-0.1-0.9-0.2c-0.2-0.1-0.2-0.4-0.2-0.8c0-0.4,0.1-0.6,0.2-0.7c0.2-0.1,0.5-0.2,0.9-0.2c0.5,0,0.9,0,1.2,0.1V36.4z
		 M138.8,34c0-0.8-0.2-1.3-0.5-1.5c-0.3-0.3-0.9-0.4-1.7-0.4c-0.6,0-1.2,0.1-1.8,0.3l0.2,0.8c0.4-0.1,0.9-0.2,1.5-0.2
		c0.6,0,0.9,0.1,1.1,0.3c0.2,0.2,0.3,0.5,0.3,1c-0.5-0.1-0.9-0.1-1.3-0.1c-0.7,0-1.2,0.1-1.5,0.3c-0.3,0.2-0.5,0.7-0.5,1.3
		c0,0.7,0.1,1.1,0.5,1.3c0.3,0.2,0.9,0.4,1.6,0.4c0.8,0,1.5-0.1,2.2-0.4V34z M130.9,35.6c0.6,0,1.1-0.1,1.4-0.4v2h1v-5.1h-1v2
		c0,0.4-0.5,0.6-1.2,0.6c-0.4,0-0.8-0.1-0.9-0.3c-0.2-0.2-0.3-0.7-0.3-1.4v-0.9H129v1C129.1,35.2,129.6,35.6,130.9,35.6 M121.5,36.4
		c1-0.7,1.8-1.3,2.3-1.8c0.5-0.5,0.8-0.9,1-1.2c0.2-0.4,0.3-0.8,0.3-1.3c0-1.5-0.8-2-2.5-2c-0.7,0-1.4,0.1-2.1,0.3
		c0,0.2,0.1,0.4,0.2,0.9c0.2-0.1,0.5-0.1,0.8-0.2s0.7-0.1,1-0.1c1.1,0,1.5,0.3,1.5,1.1c0,0.4-0.1,0.8-0.2,1s-0.5,0.6-1,1.1
		c-0.5,0.4-1.4,1.2-2.7,2.2v0.8h4.9v-0.9H121.5z M114.2,30.3v0.9h3.8c-0.4,0.6-0.9,1.6-1.5,2.7c-0.5,1.1-1,2.3-1.4,3.4h1.2
		c0.4-1,0.8-2.2,1.4-3.5s1.2-2.4,1.7-3.2v-0.3H114.2z M109,36.4c-0.4,0.1-0.8,0.2-1.2,0.2c-0.5,0-0.8-0.1-0.9-0.2
		c-0.2-0.1-0.2-0.4-0.2-0.8c0-0.4,0.1-0.6,0.2-0.7c0.2-0.1,0.5-0.2,0.9-0.2c0.5,0,0.9,0,1.2,0.1V36.4z M109.9,34
		c0-0.8-0.2-1.3-0.5-1.5c-0.3-0.3-0.9-0.4-1.7-0.4c-0.6,0-1.2,0.1-1.8,0.3l0.2,0.8c0.4-0.1,0.9-0.2,1.5-0.2c0.6,0,0.9,0.1,1.1,0.3
		c0.2,0.2,0.3,0.5,0.3,1c-0.5-0.1-0.9-0.1-1.3-0.1c-0.7,0-1.2,0.1-1.5,0.3c-0.3,0.2-0.5,0.7-0.5,1.3c0,0.7,0.2,1.1,0.5,1.3
		c0.3,0.2,0.9,0.4,1.6,0.4c0.8,0,1.5-0.1,2.2-0.4V34z M103.2,34.5c0.9-0.1,1.2-0.5,1.2-1.2c0-0.9-0.6-1.3-2.3-1.3
		c-0.6,0-1.2,0.1-1.7,0.2l0.2,0.8c0.4-0.1,0.8-0.2,1.4-0.2c0.6,0,0.9,0,1.1,0.1c0.2,0.1,0.3,0.3,0.3,0.5c0,0.5-0.3,0.6-1.2,0.6h-0.8
		v0.8h0.8c1,0,1.3,0.2,1.3,0.8c0,0.5-0.4,0.8-1.5,0.8c-0.5,0-1-0.1-1.4-0.2l-0.2,0.8c0.5,0.1,1.1,0.2,1.8,0.2c1.7,0,2.4-0.4,2.4-1.5
		C104.5,35,104.1,34.6,103.2,34.5 M95.6,37.2h1v-5.1h-1V37.2z M91.5,32.2h-1v5.1h2.8c1.1,0,1.6-0.5,1.6-1.6c0-1-0.5-1.5-1.6-1.5
		h-1.9V32.2z M91.5,36.5v-1.6h1.7c0.5,0,0.7,0.2,0.7,0.8c0,0.6-0.2,0.8-0.7,0.8H91.5z M89.8,33v-0.8h-4.7V33H87v4.2h1V33H89.8z
		 M85,37.2c-0.8-1.4-1.4-2.2-1.7-2.5c-0.2-0.1-0.3-0.2-0.6-0.3c0.3-0.2,1-1,2.1-2.3h-1.2c-1,1.2-1.8,2-2.2,2.4v-2.4h-0.9v5.1h0.9
		v-2.4c0.4,0.1,0.8,0.3,1.1,0.6c0.4,0.3,0.8,0.9,1.2,1.8H85z M77.3,32.8c0.4,0,0.7,0.1,0.9,0.3c0.2,0.2,0.3,0.5,0.3,1H76
		C76.1,33.1,76.4,32.8,77.3,32.8 M77.3,32c-1.6,0-2.3,0.7-2.3,2.6c0,1,0.2,1.7,0.6,2.1c0.4,0.4,1,0.6,1.8,0.6c0.6,0,1.1-0.1,1.7-0.3
		l-0.2-0.8c-0.5,0.2-1,0.2-1.4,0.2c-0.6,0-0.9-0.1-1.2-0.3C76.1,36,76,35.6,76,34.9h3.5v-0.2c0-1-0.2-1.7-0.5-2.1
		C78.6,32.2,78.1,32,77.3,32 M70.5,36.5v-1.6h1.7c0.5,0,0.7,0.2,0.7,0.8c0,0.6-0.2,0.8-0.7,0.8H70.5z M68.5,33h1.1v4.2h2.8
		c1.1,0,1.6-0.5,1.6-1.6c0-1-0.5-1.5-1.6-1.5h-1.9v-1.9h-2.1V33z M64.3,32.9c0.1-0.6,0.2-1,0.4-1.2c0.2-0.2,0.5-0.4,1.1-0.4
		c0.8-0.1,1.4-0.2,1.8-0.4V30c-0.4,0.2-1.1,0.3-1.9,0.4c-0.5,0-0.8,0.1-1.1,0.2c-0.3,0.1-0.5,0.3-0.7,0.6c-0.4,0.6-0.6,1.5-0.6,3.2
		c0,1.1,0.2,1.9,0.5,2.4s0.9,0.7,1.7,0.7c0.8,0,1.4-0.2,1.8-0.6s0.6-1,0.6-2c0-1-0.2-1.6-0.5-2c-0.3-0.4-0.9-0.6-1.6-0.6
		C65.1,32.2,64.6,32.5,64.3,32.9 M64.3,34.8c0-0.7,0.1-1.1,0.3-1.4c0.2-0.2,0.5-0.4,1.1-0.4c0.5,0,0.8,0.1,1,0.4
		c0.2,0.2,0.3,0.7,0.3,1.4c0,0.7-0.1,1.2-0.3,1.4c-0.2,0.2-0.5,0.3-1.1,0.3C64.7,36.6,64.3,36.1,64.3,34.8 M58.9,36.5
		c-1.7,0-2.1-0.4-2.1-2.7c0-1.2,0.1-1.8,0.5-2.2c0.4-0.4,0.8-0.5,1.7-0.5c0.6,0,1,0.1,1.3,0.2s0.5,0.4,0.6,0.8
		c0.1,0.4,0.2,1,0.2,1.8c0,1.5-0.3,2.2-0.8,2.5C59.9,36.4,59.5,36.5,58.9,36.5 M62.2,33.7c0-1.4-0.2-2.3-0.8-2.9
		c-0.6-0.5-1.3-0.7-2.4-0.7c-1.1,0-1.9,0.2-2.4,0.7c-0.6,0.6-0.8,1.5-0.8,2.9c0,2.9,1,3.7,3.2,3.7c1.2,0,1.9-0.2,2.4-0.8
		C61.9,36.1,62.2,35.1,62.2,33.7"/>
</g>
<g>
	<path class="st19" d="M108.4,118.3c-0.2-0.1-0.6-0.2-0.9-0.2c-0.7,0-1.1,0.2-1.1,1.5c0.3-0.1,0.6-0.1,0.9-0.1
		c1.1,0,1.4,0.4,1.4,1.5c0,1.2-0.4,1.6-1.4,1.6c-1.1,0-1.5-0.6-1.5-2.6s0.5-2.5,1.8-2.5c0.3,0,0.7,0.1,1,0.2L108.4,118.3z
		 M108.1,121.1c0-0.7-0.2-1-0.8-1c-0.3,0-0.6,0-0.9,0.1c0,1.5,0.3,1.7,0.9,1.7C108,121.9,108.1,121.7,108.1,121.1z"/>
</g>
<g>
	<path class="st20" d="M119.5,122.5h-0.6v-4.9h0.6v2h1.9v-2h0.6v4.9h-0.6v-2.3h-1.9V122.5z"/>
	<path class="st20" d="M125.1,122.4c-0.3,0.1-0.7,0.2-1,0.2c-0.8,0-1.4-0.4-1.4-1.9c0-1.4,0.5-1.9,1.3-1.9c0.8,0,1.2,0.4,1.2,2h-1.9
		c0,1,0.3,1.2,0.8,1.2c0.2,0,0.6-0.1,0.8-0.2L125.1,122.4z M123.4,120.3h1.4c0-0.8-0.2-0.9-0.7-0.9
		C123.6,119.4,123.4,119.6,123.4,120.3z"/>
	<path class="st20" d="M127.2,122.5h-0.5v-3h-1.1v-0.6h2.6v0.6h-1V122.5z"/>
	<path class="st20" d="M132.7,118.9v3h0.5l-0.1,1.5h-0.4v-0.9h-2.3v0.9H130l-0.1-1.5h0.5c0.2-0.9,0.4-1.9,0.4-3H132.7z M131.2,119.5
		c0,0.7-0.2,1.6-0.4,2.4h1.3v-2.4H131.2z"/>
	<path class="st20" d="M135.9,122.3c-0.3,0.2-0.8,0.3-1.2,0.3c-0.9,0-1.2-0.3-1.2-1.2c0-1,0.5-1.2,1.1-1.2c0.3,0,0.5,0,0.8,0.1
		c0-0.7-0.2-0.9-0.8-0.9c-0.3,0-0.6,0-0.8,0.2l-0.1-0.6c0.3-0.1,0.6-0.2,1-0.2c0.8,0,1.2,0.3,1.2,1.4V122.3z M135.4,120.8
		c-0.2-0.1-0.4-0.1-0.7-0.1c-0.5,0-0.6,0.1-0.6,0.6c0,0.6,0.1,0.7,0.6,0.7c0.2,0,0.5-0.1,0.7-0.1V120.8z"/>
	<path class="st20" d="M137.3,120.9v1.6h-0.5v-3.6h0.5v1.4h1.3v-1.4h0.5v3.6h-0.5v-1.6H137.3z"/>
	<path class="st20" d="M140.5,120.9v1.6h-0.5v-3.6h0.5v1.4h1.3v-1.4h0.5v3.6h-0.5v-1.6H140.5z"/>
	<path class="st20" d="M144.7,120.3c0.6,0,0.9,0.4,0.9,1.1c0,0.8-0.3,1.1-0.9,1.1h-1.6v-3.6h0.5v1.4H144.7z M145,121.4
		c0-0.4-0.1-0.5-0.4-0.5h-1v1.1h1C144.9,121.9,145,121.8,145,121.4z M146.5,122.5h-0.5v-3.6h0.5V122.5z"/>
	<path class="st20" d="M149,122.5c-0.2-0.4-0.4-0.8-0.7-1.3c-0.3,0.5-0.5,0.9-0.8,1.3H147c0.4-0.5,0.7-1.1,1.1-1.8
		c-0.4-0.6-0.8-1.3-1.1-1.8h0.7c0.2,0.4,0.5,0.8,0.7,1.2c0.3-0.4,0.5-0.9,0.7-1.2h0.6c-0.3,0.5-0.6,1.1-1,1.8c0.4,0.6,0.7,1.2,1,1.8
		H149z"/>
</g>
<g>
	<path class="st20" d="M120.5,127.2c0.4,0,0.8,0.1,1.1,0.2l-0.1,0.6c-0.2-0.1-0.6-0.2-0.9-0.2c-0.9,0-1.3,0.2-1.3,1.9
		c0,1.6,0.3,1.9,1.3,1.9c0.3,0,0.7-0.1,0.9-0.2l0.1,0.6c-0.3,0.1-0.7,0.2-1.1,0.2c-1.2,0-1.8-0.6-1.8-2.6
		C118.7,127.7,119.3,127.2,120.5,127.2z"/>
	<path class="st20" d="M122.1,130.4c0-1.4,0.4-1.9,1.3-1.9c0.9,0,1.3,0.4,1.3,1.9c0,1.5-0.4,1.9-1.3,1.9
		C122.5,132.3,122.1,131.9,122.1,130.4z M122.6,130.4c0,1.1,0.2,1.3,0.8,1.3c0.6,0,0.8-0.2,0.8-1.3c0-1.1-0.2-1.3-0.8-1.3
		C122.8,129.1,122.6,129.3,122.6,130.4z"/>
	<path class="st20" d="M129.1,132.1c-0.2,0.1-0.6,0.2-0.8,0.2c-0.9,0-1.4-0.4-1.4-1.9c0-1.4,0.5-1.9,1.4-1.9c0.3,0,0.6,0.1,0.8,0.2
		l-0.1,0.6c-0.2-0.1-0.4-0.2-0.7-0.2c-0.6,0-0.9,0.2-0.9,1.3c0,1,0.3,1.3,0.9,1.3c0.2,0,0.5-0.1,0.7-0.2L129.1,132.1z"/>
	<path class="st20" d="M130.4,129.3c-0.1,1-0.3,2.1-0.5,3h-0.6c0.3-1,0.5-2.2,0.5-3.6h1.9v3.6h-0.5v-3H130.4z"/>
	<path class="st20" d="M134.6,129.7c-0.4,0.9-0.9,1.7-1.3,2.5h-0.5v-3.6h0.5v2.6c0.5-0.7,0.9-1.7,1.3-2.6h0.5v3.6h-0.5V129.7z"/>
	<path class="st20" d="M138.3,131.2c0,0.7-0.3,1-0.8,1h-1.6v-3.6h1.6c0.6,0,0.8,0.4,0.8,0.8c0,0.4-0.1,0.7-0.6,0.8
		C138.2,130.3,138.3,130.7,138.3,131.2z M136.4,130.1h0.9c0.3,0,0.4-0.2,0.4-0.5c0-0.3-0.1-0.4-0.4-0.4h-0.9V130.1z M137.4,131.7
		c0.3,0,0.4-0.1,0.4-0.5c0-0.4-0.1-0.6-0.4-0.6h-1v1.1H137.4z"/>
	<path class="st20" d="M141.3,132c-0.3,0.2-0.8,0.3-1.2,0.3c-0.9,0-1.2-0.3-1.2-1.2c0-1,0.5-1.2,1.1-1.2c0.3,0,0.5,0,0.8,0.1
		c0-0.7-0.2-0.9-0.8-0.9c-0.3,0-0.6,0-0.8,0.2l-0.1-0.6c0.3-0.1,0.6-0.2,1-0.2c0.8,0,1.2,0.3,1.2,1.4V132z M140.8,130.6
		c-0.2-0.1-0.4-0.1-0.7-0.1c-0.5,0-0.6,0.1-0.6,0.6c0,0.6,0.1,0.7,0.6,0.7c0.2,0,0.5-0.1,0.7-0.1V130.6z"/>
	<path class="st20" d="M144.6,128.7h0.8v3.6h-0.5v-2.9c-0.3,0.8-0.6,1.8-0.9,2.6h-0.4c-0.2-0.8-0.6-1.8-0.9-2.6v2.9h-0.5v-3.6h0.8
		c0.3,0.8,0.6,1.6,0.8,2.4C144,130.2,144.3,129.4,144.6,128.7z"/>
	<path class="st20" d="M148,129.7c-0.4,0.9-0.9,1.7-1.3,2.5h-0.5v-3.6h0.5v2.6c0.5-0.7,0.9-1.7,1.3-2.6h0.5v3.6H148V129.7z"/>
</g>
<g>
	<path class="st19" d="M108.8,127.6c-0.6,1.1-1.3,3.3-1.7,4.7h-0.7c0.4-1.5,1.1-3.3,1.6-4.3h-2.1v-0.6h2.9V127.6z"/>
</g>
<g>
	<path class="st20" d="M122,140.6c0,0.9-0.4,1.4-1,1.4h-2v-4.9h2c0.8,0,0.9,0.5,0.9,1.2c0,0.6-0.1,1-0.8,1.1
		C121.8,139.4,122,139.9,122,140.6z M119.5,139.1h1.3c0.3,0,0.4-0.3,0.4-0.7c0-0.4-0.1-0.7-0.4-0.7h-1.3V139.1z M120.9,141.4
		c0.3,0,0.5-0.3,0.5-0.8c0-0.5-0.2-0.9-0.5-0.9h-1.4v1.7H120.9z"/>
	<path class="st20" d="M124.8,142h-0.5v-3.6h2.4v3.6h-0.5v-3h-1.3V142z"/>
	<path class="st20" d="M127.4,140.2c0-1.4,0.4-1.9,1.3-1.9c0.9,0,1.3,0.4,1.3,1.9c0,1.5-0.4,1.9-1.3,1.9
		C127.8,142.1,127.4,141.6,127.4,140.2z M127.9,140.2c0,1.1,0.2,1.3,0.8,1.3c0.6,0,0.8-0.2,0.8-1.3c0-1.1-0.2-1.3-0.8-1.3
		C128.1,138.9,127.9,139.1,127.9,140.2z"/>
	<path class="st20" d="M130.8,138.6c0.3-0.2,0.8-0.3,1.2-0.3c0.9,0,1.3,0.4,1.3,1.9c0,1.5-0.4,1.9-1.3,1.9c-0.4,0-0.6-0.1-0.7-0.3
		v1.5h-0.5V138.6z M131.3,141c0,0.3,0.3,0.4,0.7,0.4c0.6,0,0.8-0.3,0.8-1.3c0-1.1-0.2-1.3-0.8-1.3c-0.2,0-0.5,0-0.7,0.1V141z"/>
	<path class="st20" d="M133.9,139.4c0-0.6,0.2-1,0.9-1h1.5v3.6h-0.5v-1.4h-0.5c-0.4,0-0.6,0.2-1,1.4h-0.6c0.5-1.3,0.7-1.5,1-1.6
		C134.2,140.4,133.9,139.9,133.9,139.4z M135.9,139h-0.9c-0.3,0-0.4,0.1-0.4,0.5c0,0.4,0.1,0.5,0.4,0.5h0.9V139z"/>
	<path class="st20" d="M139.7,138.4v3h0.5l-0.1,1.5h-0.4V142h-2.3v0.9H137l-0.1-1.5h0.5c0.2-0.9,0.4-1.9,0.4-3H139.7z M138.2,139
		c0,0.7-0.2,1.6-0.4,2.4h1.3V139H138.2z"/>
	<path class="st20" d="M142.5,142c-0.6-1.3-0.9-1.6-1.3-1.7v1.7h-0.5v-3.6h0.5v1.7c0.2-0.3,0.7-0.9,1.2-1.7h0.6
		c-0.6,0.9-1,1.5-1.2,1.6c0.3,0.1,0.6,0.3,1.2,1.9H142.5z"/>
	<path class="st20" d="M145.8,141.9c-0.3,0.1-0.7,0.2-1,0.2c-0.8,0-1.4-0.4-1.4-1.9c0-1.4,0.5-1.9,1.3-1.9c0.8,0,1.2,0.4,1.2,2H144
		c0,1,0.3,1.2,0.8,1.2c0.2,0,0.6-0.1,0.8-0.2L145.8,141.9z M144,139.8h1.4c0-0.8-0.2-0.9-0.7-0.9C144.2,138.9,144.1,139.1,144,139.8
		z"/>
</g>
<g>
	<path class="st19" d="M108.8,137.3c-0.6,1.1-1.3,3.3-1.7,4.7h-0.7c0.4-1.5,1.1-3.3,1.6-4.3h-2.1v-0.6h2.9V137.3z"/>
	<path class="st19" d="M111.3,140c-0.2,0-0.5,0.1-0.6,0.1c-1.1,0-1.4-0.4-1.4-1.4c0-1.2,0.4-1.6,1.4-1.6c1.1,0,1.5,0.4,1.5,1.7
		c0,1.4-0.7,2.5-1.4,3.3H110C110.5,141.3,111,140.7,111.3,140z M111.5,139.4c0-0.2,0.1-0.4,0.1-0.6c0-1.1-0.2-1.2-0.9-1.2
		c-0.7,0-0.8,0.3-0.8,1c0,0.7,0.2,0.9,0.9,0.9C111,139.4,111.3,139.4,111.5,139.4z"/>
</g>
<g>
	<defs>
		<rect id="SVGID_15_" x="42.5" y="30" width="448.5" height="298.7"/>
	</defs>
	<clipPath id="SVGID_16_">
		<use xlink:href="#SVGID_15_"  style="overflow:visible;"/>
	</clipPath>
	<path class="st21" d="M100.4,101.4c0.8-0.8,1.3-1.4,1.6-1.8c0.3-0.5,0.6-0.9,0.7-1.2c0.1-0.4,0.2-0.8,0.2-1.3c0-1.5-0.6-2-1.9-2
		c-0.6,0-1.1,0.1-1.6,0.3l0.3,0.9c0.4-0.2,0.8-0.3,1.2-0.3c0.7,0,1,0.3,1,1.2c0,0.4-0.1,0.8-0.1,1.1c-0.1,0.3-0.3,0.7-0.7,1.1
		c-0.4,0.5-1,1.2-1.8,2.1v0.8h3.6v-0.8H100.4z M96.8,98.6c-0.4,0-0.7-0.1-0.8-0.3c-0.1-0.2-0.2-0.5-0.2-1.1c0-1,0.2-1.4,0.9-1.4
		c0.8,0,0.9,0.2,1,1.7c0,0.4,0,0.7-0.1,1C97.4,98.6,97.1,98.6,96.8,98.6 M96.9,102.2c1.1-1.5,1.8-2.9,1.8-4.7c0-1-0.1-1.6-0.4-1.9
		C98,95.2,97.5,95,96.8,95c-0.7,0-1.2,0.2-1.5,0.5c-0.3,0.4-0.4,0.9-0.4,1.8c0,0.8,0.1,1.3,0.4,1.6c0.3,0.3,0.8,0.4,1.4,0.4
		c0.2,0,0.5,0,0.8-0.1c-0.3,0.9-0.9,1.8-1.7,2.9H96.9z"/>
	<path class="st22" d="M103.7,60.7c0.2,0,0.3,0,0.5,0.1C104,60.7,103.9,60.7,103.7,60.7"/>
	<path class="st22" d="M101.2,60.4c0.2,0,0.4,0,0.6,0C101.6,60.5,101.4,60.5,101.2,60.4"/>
	<path class="st22" d="M120.5,61.6c12.5,7.4,20.8,21,20.9,36.5h0.5c-0.1-19.7-13.3-36.2-31.4-41.4c3.6,1,7.1,2.5,10.2,4.4
		L120.5,61.6z"/>
	<path class="st22" d="M60.9,98.3c0-20.9,17-37.9,37.9-37.9C77.9,60.4,60.9,77.3,60.9,98.3s17,37.9,37.9,37.9
		C77.9,136.2,60.9,119.2,60.9,98.3"/>
	<path class="st22" d="M118.4,65.3l-0.2,0.4c11.1,6.6,18.5,18.7,18.5,32.5h0.5C137.2,84.2,129.6,71.9,118.4,65.3"/>
	<path class="st22" d="M108.9,61.7c0.1,0,0.1,0,0.2,0.1C109.1,61.8,109,61.8,108.9,61.7"/>
	<path class="st23" d="M101.8,60.5c0.6,0,1.2,0.1,1.9,0.2C103.1,60.6,102.5,60.5,101.8,60.5"/>
	<path class="st23" d="M98.8,60.4L98.8,60.4c0.8,0,1.6,0,2.4,0.1C100.4,60.4,99.6,60.4,98.8,60.4"/>
	<path class="st23" d="M118.2,65.7L118.2,65.7c-2.8-1.7-5.8-3-9-3.9C112.3,62.7,115.4,64,118.2,65.7"/>
	<path class="st23" d="M110.3,56.7c0.1,0,0.2,0.1,0.3,0.1C110.5,56.8,110.4,56.7,110.3,56.7"/>
	<path class="st23" d="M55.7,98.3c0-23.8,19.3-43.1,43.1-43.1C75,55.1,55.7,74.5,55.7,98.3s19.3,43.1,43.1,43.1
		C75,141.4,55.7,122.1,55.7,98.3"/>
	<path class="st24" d="M110.6,56.8c-0.1,0-0.2-0.1-0.3-0.1c-1.7-0.5-3.5-0.9-5.3-1.1c-0.2,0-0.4-0.1-0.6-0.1
		c-0.7-0.1-1.4-0.2-2.1-0.2c-0.2,0-0.5,0-0.7-0.1c-0.9-0.1-1.8-0.1-2.7-0.1c-23.8,0-43.1,19.3-43.1,43.1s19.3,43.1,43.1,43.1v-0.5
		v-4.2v-0.5c-20.9,0-37.9-17-37.9-37.9c0-20.9,17-37.9,37.9-37.9c0.8,0,1.6,0,2.4,0.1c0.2,0,0.4,0,0.6,0c0.6,0,1.2,0.1,1.9,0.2
		c0.2,0,0.3,0,0.5,0.1c1.6,0.2,3.2,0.6,4.7,1c0.1,0,0.1,0,0.2,0.1c3.2,0.9,6.2,2.2,9,3.9l0.2-0.4l2.1-3.6l0.3-0.4
		C117.6,59.3,114.2,57.8,110.6,56.8"/>
	<path class="st22" d="M80.2,126.2c-0.5-0.3-1-0.7-1.5-1C79.2,125.5,79.7,125.8,80.2,126.2"/>
	<path class="st22" d="M78.4,117.9c-0.1-0.1-0.3-0.3-0.4-0.4C78.2,117.7,78.3,117.8,78.4,117.9"/>
	<path class="st22" d="M97.2,126.6c-0.2,0-0.3,0-0.5,0C96.9,126.5,97,126.5,97.2,126.6"/>
	<path class="st22" d="M77.4,116.8c-0.1-0.1-0.2-0.2-0.3-0.3C77.1,116.5,77.3,116.6,77.4,116.8"/>
	<path class="st22" d="M73.1,119.8c-0.4-0.5-0.7-0.9-1.1-1.4C72.3,118.9,72.7,119.3,73.1,119.8"/>
	<path class="st22" d="M78.6,125c-0.4-0.3-0.9-0.7-1.3-1C77.7,124.4,78.2,124.7,78.6,125"/>
	<path class="st22" d="M83.3,128c-0.4-0.2-0.7-0.4-1-0.6C82.6,127.6,82.9,127.8,83.3,128"/>
	<path class="st22" d="M81.7,127.1c-0.4-0.2-0.8-0.5-1.1-0.7C80.9,126.7,81.3,126.9,81.7,127.1"/>
	<path class="st22" d="M79.5,119c-0.1-0.1-0.3-0.3-0.4-0.4C79.2,118.7,79.4,118.9,79.5,119"/>
	<path class="st22" d="M74.3,121.1c-0.3-0.3-0.6-0.6-0.9-1C73.7,120.5,74,120.8,74.3,121.1"/>
	<path class="st22" d="M84.8,122.9c-0.2-0.1-0.3-0.2-0.5-0.3C84.5,122.7,84.6,122.8,84.8,122.9"/>
	<path class="st22" d="M75.5,122.4c-0.3-0.3-0.6-0.6-0.9-0.9C75,121.8,75.2,122.1,75.5,122.4"/>
	<path class="st22" d="M80.7,120c-0.1-0.1-0.3-0.2-0.4-0.3C80.4,119.8,80.5,119.9,80.7,120"/>
	<path class="st22" d="M81.8,120.9c-0.1-0.1-0.2-0.1-0.2-0.2C81.7,120.8,81.8,120.9,81.8,120.9"/>
	<path class="st22" d="M83.4,122c-0.1-0.1-0.2-0.1-0.3-0.2C83.2,121.9,83.3,122,83.4,122"/>
	<path class="st22" d="M76.9,123.7c-0.3-0.3-0.6-0.6-0.9-0.8C76.3,123.1,76.6,123.4,76.9,123.7"/>
	<path class="st22" d="M96.3,131.7c-0.4,0-0.9-0.1-1.3-0.1C95.5,131.6,95.9,131.7,96.3,131.7"/>
	<path class="st22" d="M86.2,123.6c-0.2-0.1-0.3-0.2-0.5-0.3C85.8,123.5,86,123.5,86.2,123.6"/>
	<path class="st22" d="M95.6,126.4c-0.2,0-0.4,0-0.6-0.1C95.2,126.4,95.4,126.4,95.6,126.4"/>
	<path class="st22" d="M65.8,98.3c0-18.2,14.8-33,33-33c18.2,0,33,14.7,33,32.9h0.5c-0.1-18.5-15.1-33.4-33.5-33.4
		c-18.5,0-33.5,15-33.5,33.5c0,7.5,2.5,14.5,6.7,20.1l0.4-0.3C68.2,112.5,65.8,105.7,65.8,98.3"/>
	<path class="st22" d="M98.8,131.8c-0.6,0-1.3,0-1.9-0.1C97.5,131.8,98.2,131.8,98.8,131.8"/>
	<path class="st22" d="M98.8,69.5C82.9,69.5,70,82.4,70,98.3c0,6.5,2.1,12.4,5.7,17.2l0.4-0.3c0,0,0,0,0,0
		c-3.5-4.7-5.6-10.6-5.6-16.9C70.5,82.6,83.2,70,98.8,70c15.6,0,28.2,12.6,28.3,28.2h0.5C127.6,82.3,114.7,69.5,98.8,69.5"/>
	<path class="st22" d="M84.9,128.8c-0.4-0.2-0.7-0.3-1.1-0.5C84.2,128.5,84.6,128.6,84.9,128.8"/>
	<path class="st22" d="M86.8,129.6c-0.4-0.2-0.8-0.3-1.3-0.5C85.9,129.2,86.3,129.4,86.8,129.6"/>
	<path class="st22" d="M98.8,126.6L98.8,126.6z"/>
	<path class="st25" d="M73.4,120.2c-0.1-0.1-0.2-0.3-0.3-0.4C73.2,119.9,73.3,120,73.4,120.2"/>
	<path class="st25" d="M98.8,126.6c-0.5,0-1.1,0-1.6,0C97.7,126.6,98.3,126.6,98.8,126.6"/>
	<path class="st25" d="M72,118.4C72,118.4,72,118.4,72,118.4C72,118.4,72,118.4,72,118.4z"/>
	<path class="st25" d="M78.7,125.1c0,0-0.1-0.1-0.1-0.1C78.6,125.1,78.7,125.1,78.7,125.1"/>
	<path class="st25" d="M74.7,121.5c-0.1-0.1-0.3-0.3-0.4-0.4C74.4,121.3,74.5,121.4,74.7,121.5"/>
	<path class="st25" d="M87.2,129.7c-0.1-0.1-0.3-0.1-0.4-0.2C86.9,129.6,87,129.7,87.2,129.7"/>
	<path class="st25" d="M95,131.6c-0.2,0-0.5-0.1-0.7-0.1C94.6,131.5,94.8,131.6,95,131.6"/>
	<path class="st25" d="M96.9,131.8c-0.2,0-0.4,0-0.6,0C96.5,131.7,96.7,131.7,96.9,131.8"/>
	<path class="st25" d="M85.5,129.1c-0.2-0.1-0.4-0.2-0.6-0.3C85.1,128.9,85.3,129,85.5,129.1"/>
	<path class="st25" d="M76,122.8c-0.1-0.1-0.3-0.3-0.4-0.4C75.7,122.5,75.8,122.7,76,122.8"/>
	<path class="st25" d="M77.3,124c-0.1-0.1-0.3-0.2-0.4-0.3C77,123.8,77.2,123.9,77.3,124"/>
	<path class="st25" d="M82.2,127.4c-0.2-0.1-0.4-0.2-0.5-0.3C81.9,127.2,82.1,127.3,82.2,127.4"/>
	<path class="st25" d="M80.6,126.4c-0.1-0.1-0.3-0.2-0.4-0.2C80.3,126.2,80.4,126.3,80.6,126.4"/>
	<path class="st25" d="M83.9,128.3c-0.2-0.1-0.4-0.2-0.6-0.3C83.5,128.1,83.7,128.2,83.9,128.3"/>
	<path class="st25" d="M80.3,119.7c-0.3-0.2-0.5-0.4-0.7-0.7C79.8,119.2,80,119.5,80.3,119.7"/>
	<path class="st25" d="M79.1,118.6c-0.2-0.2-0.5-0.5-0.7-0.7C78.7,118.2,78.9,118.4,79.1,118.6"/>
	<path class="st25" d="M78,117.5c-0.2-0.3-0.5-0.5-0.7-0.8C77.6,117,77.8,117.3,78,117.5"/>
	<path class="st25" d="M81.6,120.8c-0.3-0.2-0.6-0.5-1-0.8C81,120.3,81.3,120.5,81.6,120.8"/>
	<path class="st25" d="M96.7,126.5c-0.4,0-0.7-0.1-1.1-0.1C96,126.5,96.3,126.5,96.7,126.5"/>
	<path class="st25" d="M76.1,115.2c0.3,0.4,0.6,0.8,0.9,1.2C76.7,116,76.4,115.6,76.1,115.2"/>
	<path class="st25" d="M98.8,131.8L98.8,131.8z"/>
	<path class="st25" d="M83.1,121.8c-0.4-0.3-0.8-0.6-1.2-0.9C82.2,121.2,82.6,121.5,83.1,121.8"/>
	<path class="st25" d="M95,126.3c-0.3,0-0.7-0.1-1-0.1C94.4,126.3,94.7,126.3,95,126.3"/>
	<path class="st25" d="M84.3,122.6c-0.3-0.2-0.6-0.4-0.9-0.6C83.7,122.2,84,122.4,84.3,122.6"/>
	<path class="st25" d="M85.7,123.4c-0.3-0.2-0.6-0.3-0.9-0.5C85.1,123.1,85.4,123.2,85.7,123.4"/>
	<path class="st25" d="M87.1,124c-0.3-0.1-0.6-0.3-0.9-0.4C86.5,123.8,86.8,123.9,87.1,124"/>
	<path class="st26" d="M98.8,126.6c-0.5,0-1.1,0-1.6,0c-0.2,0-0.3,0-0.5,0c-0.4,0-0.7-0.1-1.1-0.1c-0.2,0-0.4,0-0.6-0.1
		c-0.3,0-0.7-0.1-1-0.2c-0.2,0-0.4-0.1-0.6-0.1c-0.3-0.1-0.7-0.1-1-0.2c-0.2,0-0.4-0.1-0.5-0.1c-0.4-0.1-0.8-0.2-1.2-0.3
		c-0.1,0-0.2-0.1-0.3-0.1c-0.5-0.2-1-0.3-1.5-0.5c-0.1,0-0.3-0.1-0.4-0.2c-0.3-0.1-0.7-0.3-1-0.4c-0.2-0.1-0.3-0.1-0.5-0.2
		c-0.3-0.1-0.6-0.3-0.9-0.4c-0.2-0.1-0.3-0.2-0.5-0.3c-0.3-0.2-0.6-0.3-0.9-0.5c-0.2-0.1-0.3-0.2-0.5-0.3c-0.3-0.2-0.6-0.4-0.9-0.6
		c-0.1-0.1-0.2-0.1-0.3-0.2c-0.4-0.3-0.8-0.6-1.2-0.9c-0.1-0.1-0.2-0.1-0.2-0.2c-0.3-0.2-0.6-0.5-1-0.8c-0.1-0.1-0.3-0.2-0.4-0.3
		c-0.3-0.2-0.5-0.4-0.7-0.7c-0.1-0.1-0.3-0.3-0.4-0.4c-0.2-0.2-0.5-0.5-0.7-0.7c-0.1-0.1-0.3-0.3-0.4-0.4c-0.2-0.3-0.5-0.5-0.7-0.8
		c-0.1-0.1-0.2-0.2-0.3-0.4c-0.3-0.4-0.6-0.8-0.9-1.2v0l-0.4,0.3l-3.3,2.6l-0.4,0.3c0,0,0,0,0,0c0.4,0.5,0.7,0.9,1.1,1.4
		c0.1,0.1,0.2,0.3,0.3,0.4c0.3,0.3,0.6,0.6,0.9,1c0.1,0.1,0.3,0.3,0.4,0.4c0.3,0.3,0.6,0.6,0.9,0.9c0.1,0.1,0.3,0.3,0.4,0.4
		c0.3,0.3,0.6,0.6,0.9,0.8c0.1,0.1,0.3,0.2,0.4,0.3c0.4,0.4,0.9,0.7,1.3,1c0,0,0.1,0.1,0.1,0.1c0.5,0.4,1,0.7,1.5,1
		c0.1,0.1,0.3,0.2,0.4,0.2c0.4,0.2,0.8,0.5,1.1,0.7c0.2,0.1,0.4,0.2,0.5,0.3c0.3,0.2,0.7,0.4,1,0.6c0.2,0.1,0.4,0.2,0.6,0.3
		c0.4,0.2,0.7,0.3,1.1,0.5c0.2,0.1,0.4,0.2,0.6,0.3c0.4,0.2,0.8,0.3,1.3,0.5c0.1,0.1,0.3,0.1,0.4,0.2c0.6,0.2,1.1,0.4,1.7,0.6
		c0.1,0,0.2,0.1,0.3,0.1c0.5,0.1,0.9,0.3,1.4,0.4c0.2,0,0.4,0.1,0.6,0.1c0.4,0.1,0.8,0.2,1.2,0.3c0.2,0,0.5,0.1,0.7,0.1
		c0.4,0.1,0.8,0.1,1.2,0.2c0.2,0,0.5,0.1,0.7,0.1c0.4,0,0.8,0.1,1.3,0.1c0.2,0,0.4,0,0.6,0c0.6,0,1.3,0.1,1.9,0.1v-0.5v-4.2V126.6z"
		/>
	<path class="st22" d="M75.2,98.3c0-13,10.6-23.7,23.7-23.7c13,0,23.6,10.5,23.7,23.5h0.5c-0.1-13.3-10.9-24-24.2-24
		c-13.3,0-24.2,10.8-24.2,24.2c0,7.8,3.7,14.8,9.5,19.2l0.3-0.4C78.8,112.8,75.2,105.9,75.2,98.3"/>
	<path class="st22" d="M89,114.4c0,0-0.1,0-0.1-0.1C88.9,114.3,89,114.3,89,114.4"/>
	<path class="st22" d="M87.7,113.5c-4.7-3.4-7.8-9-7.8-15.2c0-10.4,8.4-18.9,18.9-18.9c10.4,0,18.8,8.4,18.8,18.7h0.5
		c-0.1-10.6-8.7-19.2-19.3-19.2c-10.7,0-19.4,8.7-19.4,19.4c0,6.4,3.1,12.1,7.9,15.6L87.7,113.5z"/>
	<path class="st22" d="M93,116.2c-0.1,0-0.3-0.1-0.4-0.2C92.7,116.1,92.8,116.1,93,116.2"/>
	<path class="st22" d="M90.8,121.1c-0.6-0.2-1.1-0.4-1.7-0.7C89.7,120.7,90.3,120.9,90.8,121.1"/>
	<path class="st22" d="M89,120.4c-1.1-0.5-2.2-1.1-3.3-1.8C86.8,119.3,87.9,119.9,89,120.4"/>
	<path class="st22" d="M85.7,118.6c-0.5-0.3-1-0.7-1.5-1.1C84.6,117.8,85.1,118.2,85.7,118.6"/>
	<path class="st25" d="M91.1,121.2c-0.1,0-0.1,0-0.2-0.1C90.9,121.1,91,121.1,91.1,121.2"/>
	<path class="st25" d="M88.9,114.3c-0.4-0.2-0.8-0.5-1.2-0.8C88.1,113.8,88.5,114,88.9,114.3"/>
	<path class="st25" d="M89.2,120.4c0,0-0.1,0-0.1-0.1C89.1,120.4,89.1,120.4,89.2,120.4"/>
	<path class="st25" d="M84.1,117.5L84.1,117.5z"/>
	<path class="st25" d="M85.8,118.6C85.7,118.6,85.7,118.6,85.8,118.6C85.7,118.6,85.7,118.6,85.8,118.6"/>
	<path class="st25" d="M92.5,116c-1.2-0.4-2.4-1-3.5-1.7C90.1,115,91.3,115.6,92.5,116"/>
	<path class="st27" d="M97.1,117c-0.2,0-0.4,0-0.6-0.1c-0.4,0-0.7-0.1-1.1-0.2c-0.3,0-0.5-0.1-0.8-0.2c-0.3-0.1-0.6-0.1-0.8-0.2
		c-0.3-0.1-0.6-0.2-0.9-0.2c-0.1,0-0.3-0.1-0.4-0.2c-1.2-0.4-2.4-1-3.5-1.7c0,0-0.1,0-0.1-0.1c-0.4-0.2-0.8-0.5-1.2-0.8c0,0,0,0,0,0
		l-0.3,0.4l-2.9,3.2l-0.3,0.4c0.5,0.4,1,0.7,1.5,1.1c0,0,0.1,0,0.1,0.1c1,0.7,2.1,1.3,3.3,1.8c0,0,0.1,0,0.1,0.1
		c0.6,0.2,1.1,0.5,1.7,0.7c0.1,0,0.1,0,0.2,0.1c1.1,0.4,2.3,0.7,3.5,0.9c0.1,0,0.2,0,0.3,0.1c0.6,0.1,1.2,0.2,1.8,0.2
		c0.1,0,0.2,0,0.3,0c0.6,0,1.2,0.1,1.8,0.1v-0.5v-4.3v-0.5C98.2,117.1,97.6,117.1,97.1,117"/>
</g>
<g>
	<path class="st19" d="M224.5,142.2c-0.3,0.2-0.8,0.3-1.2,0.3c-0.9,0-1.2-0.3-1.2-1.2c0-1,0.5-1.2,1.1-1.2c0.3,0,0.5,0,0.8,0.1
		c0-0.7-0.2-0.9-0.8-0.9c-0.3,0-0.6,0-0.8,0.2l-0.1-0.6c0.3-0.1,0.6-0.2,1-0.2c0.8,0,1.2,0.3,1.2,1.4V142.2z M224,140.8
		c-0.2-0.1-0.4-0.1-0.7-0.1c-0.5,0-0.6,0.1-0.6,0.6c0,0.6,0.1,0.7,0.6,0.7c0.2,0,0.5-0.1,0.7-0.1V140.8z"/>
	<path class="st19" d="M227.8,141.4c0,0.7-0.3,1-0.8,1h-1.6v-3.6h1.6c0.6,0,0.8,0.4,0.8,0.8c0,0.4-0.1,0.7-0.6,0.8
		C227.6,140.5,227.8,140.9,227.8,141.4z M225.8,140.3h0.9c0.3,0,0.4-0.2,0.4-0.5c0-0.3-0.1-0.4-0.4-0.4h-0.9V140.3z M226.8,141.9
		c0.3,0,0.4-0.1,0.4-0.5c0-0.4-0.1-0.6-0.4-0.6h-1v1.1H226.8z"/>
	<path class="st19" d="M229,142.4h-0.5v-3.6h1.9v0.6H229V142.4z"/>
	<path class="st19" d="M230.5,142c0,0.4-0.1,0.5-0.4,0.5c-0.3,0-0.4-0.1-0.4-0.5c0-0.4,0.1-0.4,0.4-0.4
		C230.4,141.6,230.5,141.6,230.5,142z"/>
</g>
<g>
	<path class="st19" d="M224.5,322.8c-0.3,0.2-0.8,0.3-1.2,0.3c-0.9,0-1.2-0.3-1.2-1.2c0-1,0.5-1.2,1.1-1.2c0.3,0,0.5,0,0.8,0.1
		c0-0.7-0.2-0.9-0.8-0.9c-0.3,0-0.6,0-0.8,0.2l-0.1-0.6c0.3-0.1,0.6-0.2,1-0.2c0.8,0,1.2,0.3,1.2,1.4V322.8z M224,321.3
		c-0.2-0.1-0.4-0.1-0.7-0.1c-0.5,0-0.6,0.1-0.6,0.6c0,0.6,0.1,0.7,0.6,0.7c0.2,0,0.5-0.1,0.7-0.1V321.3z"/>
	<path class="st19" d="M227.8,322c0,0.7-0.3,1-0.8,1h-1.6v-3.6h1.6c0.6,0,0.8,0.4,0.8,0.8c0,0.4-0.1,0.7-0.6,0.8
		C227.6,321.1,227.8,321.5,227.8,322z M225.8,320.8h0.9c0.3,0,0.4-0.2,0.4-0.5c0-0.3-0.1-0.4-0.4-0.4h-0.9V320.8z M226.8,322.4
		c0.3,0,0.4-0.1,0.4-0.5c0-0.4-0.1-0.6-0.4-0.6h-1v1.1H226.8z"/>
	<path class="st19" d="M229,323h-0.5v-3.6h1.9v0.6H229V323z"/>
	<path class="st19" d="M230.5,322.5c0,0.4-0.1,0.5-0.4,0.5c-0.3,0-0.4-0.1-0.4-0.5c0-0.4,0.1-0.4,0.4-0.4
		C230.4,322.1,230.5,322.2,230.5,322.5z"/>
</g>
<g>
	<path class="st19" d="M63.2,322.8c-0.3,0.2-0.8,0.3-1.2,0.3c-0.9,0-1.2-0.3-1.2-1.2c0-1,0.5-1.2,1.1-1.2c0.3,0,0.5,0,0.8,0.1
		c0-0.7-0.2-0.9-0.8-0.9c-0.3,0-0.6,0-0.8,0.2l-0.1-0.6c0.3-0.1,0.6-0.2,1-0.2c0.8,0,1.2,0.3,1.2,1.4V322.8z M62.7,321.3
		c-0.2-0.1-0.4-0.1-0.7-0.1c-0.5,0-0.6,0.1-0.6,0.6c0,0.6,0.1,0.7,0.6,0.7c0.2,0,0.5-0.1,0.7-0.1V321.3z"/>
	<path class="st19" d="M66.5,322c0,0.7-0.3,1-0.8,1H64v-3.6h1.6c0.6,0,0.8,0.4,0.8,0.8c0,0.4-0.1,0.7-0.6,0.8
		C66.3,321.1,66.5,321.5,66.5,322z M64.5,320.8h0.9c0.3,0,0.4-0.2,0.4-0.5c0-0.3-0.1-0.4-0.4-0.4h-0.9V320.8z M65.5,322.4
		c0.3,0,0.4-0.1,0.4-0.5c0-0.4-0.1-0.6-0.4-0.6h-1v1.1H65.5z"/>
	<path class="st19" d="M67.7,323h-0.5v-3.6h1.9v0.6h-1.4V323z"/>
	<path class="st19" d="M69.2,322.5c0,0.4-0.1,0.5-0.4,0.5c-0.3,0-0.4-0.1-0.4-0.5c0-0.4,0.1-0.4,0.4-0.4
		C69.1,322.1,69.2,322.2,69.2,322.5z"/>
</g>
<g>
	<path class="st19" d="M387.9,142.2c-0.3,0.2-0.8,0.3-1.2,0.3c-0.9,0-1.2-0.3-1.2-1.2c0-1,0.5-1.2,1.1-1.2c0.3,0,0.5,0,0.8,0.1
		c0-0.7-0.2-0.9-0.8-0.9c-0.3,0-0.6,0-0.8,0.2l-0.1-0.6c0.3-0.1,0.6-0.2,1-0.2c0.8,0,1.2,0.3,1.2,1.4V142.2z M387.4,140.8
		c-0.2-0.1-0.4-0.1-0.7-0.1c-0.5,0-0.6,0.1-0.6,0.6c0,0.6,0.1,0.7,0.6,0.7c0.2,0,0.5-0.1,0.7-0.1V140.8z"/>
	<path class="st19" d="M391.2,141.4c0,0.7-0.3,1-0.8,1h-1.6v-3.6h1.6c0.6,0,0.8,0.4,0.8,0.8c0,0.4-0.1,0.7-0.6,0.8
		C391,140.5,391.2,140.9,391.2,141.4z M389.2,140.3h0.9c0.3,0,0.4-0.2,0.4-0.5c0-0.3-0.1-0.4-0.4-0.4h-0.9V140.3z M390.2,141.9
		c0.3,0,0.4-0.1,0.4-0.5c0-0.4-0.1-0.6-0.4-0.6h-1v1.1H390.2z"/>
	<path class="st19" d="M392.4,142.4h-0.5v-3.6h1.9v0.6h-1.4V142.4z"/>
	<path class="st19" d="M393.9,142c0,0.4-0.1,0.5-0.4,0.5c-0.3,0-0.4-0.1-0.4-0.5c0-0.4,0.1-0.4,0.4-0.4
		C393.8,141.6,393.9,141.6,393.9,142z"/>
</g>
<g>
	<path class="st19" d="M387.9,322.8c-0.3,0.2-0.8,0.3-1.2,0.3c-0.9,0-1.2-0.3-1.2-1.2c0-1,0.5-1.2,1.1-1.2c0.3,0,0.5,0,0.8,0.1
		c0-0.7-0.2-0.9-0.8-0.9c-0.3,0-0.6,0-0.8,0.2l-0.1-0.6c0.3-0.1,0.6-0.2,1-0.2c0.8,0,1.2,0.3,1.2,1.4V322.8z M387.4,321.3
		c-0.2-0.1-0.4-0.1-0.7-0.1c-0.5,0-0.6,0.1-0.6,0.6c0,0.6,0.1,0.7,0.6,0.7c0.2,0,0.5-0.1,0.7-0.1V321.3z"/>
	<path class="st19" d="M391.2,322c0,0.7-0.3,1-0.8,1h-1.6v-3.6h1.6c0.6,0,0.8,0.4,0.8,0.8c0,0.4-0.1,0.7-0.6,0.8
		C391,321.1,391.2,321.5,391.2,322z M389.2,320.8h0.9c0.3,0,0.4-0.2,0.4-0.5c0-0.3-0.1-0.4-0.4-0.4h-0.9V320.8z M390.2,322.4
		c0.3,0,0.4-0.1,0.4-0.5c0-0.4-0.1-0.6-0.4-0.6h-1v1.1H390.2z"/>
	<path class="st19" d="M392.4,323h-0.5v-3.6h1.9v0.6h-1.4V323z"/>
	<path class="st19" d="M393.9,322.5c0,0.4-0.1,0.5-0.4,0.5c-0.3,0-0.4-0.1-0.4-0.5c0-0.4,0.1-0.4,0.4-0.4
		C393.8,322.1,393.9,322.2,393.9,322.5z"/>
</g>
<g>
	<path class="st19" d="M250.3,142.3c-0.2,0.1-0.6,0.2-0.8,0.2c-0.9,0-1.4-0.4-1.4-1.9c0-1.4,0.5-1.9,1.4-1.9c0.3,0,0.6,0.1,0.8,0.2
		l-0.1,0.6c-0.2-0.1-0.4-0.2-0.7-0.2c-0.6,0-0.9,0.2-0.9,1.3c0,1,0.3,1.3,0.9,1.3c0.2,0,0.5-0.1,0.7-0.2L250.3,142.3z"/>
	<path class="st19" d="M253,142.3c-0.3,0.1-0.7,0.2-1,0.2c-0.8,0-1.4-0.4-1.4-1.9c0-1.4,0.5-1.9,1.3-1.9c0.8,0,1.2,0.4,1.2,2h-1.9
		c0,1,0.3,1.2,0.8,1.2c0.2,0,0.6-0.1,0.8-0.2L253,142.3z M251.3,140.2h1.4c0-0.8-0.2-0.9-0.7-0.9
		C251.5,139.3,251.3,139.5,251.3,140.2z"/>
	<path class="st19" d="M254.4,140.8v1.6h-0.5v-3.6h0.5v1.4h1.3v-1.4h0.5v3.6h-0.5v-1.6H254.4z"/>
	<path class="st19" d="M258.3,142.4h-0.5v-3h-1.1v-0.6h2.6v0.6h-1V142.4z"/>
	<path class="st19" d="M259.7,142c0,0.4-0.1,0.5-0.4,0.5c-0.3,0-0.4-0.1-0.4-0.5c0-0.4,0.1-0.4,0.4-0.4
		C259.6,141.6,259.7,141.6,259.7,142z"/>
</g>
<g>
	<path class="st19" d="M250.3,322.9c-0.2,0.1-0.6,0.2-0.8,0.2c-0.9,0-1.4-0.4-1.4-1.9c0-1.5,0.5-1.9,1.4-1.9c0.3,0,0.6,0.1,0.8,0.2
		l-0.1,0.6c-0.2-0.1-0.4-0.2-0.7-0.2c-0.6,0-0.9,0.2-0.9,1.3c0,1,0.3,1.3,0.9,1.3c0.2,0,0.5-0.1,0.7-0.2L250.3,322.9z"/>
	<path class="st19" d="M253,322.9c-0.3,0.1-0.7,0.2-1,0.2c-0.8,0-1.4-0.4-1.4-1.9c0-1.4,0.5-1.9,1.3-1.9c0.8,0,1.2,0.4,1.2,2h-1.9
		c0,1,0.3,1.2,0.8,1.2c0.2,0,0.6-0.1,0.8-0.2L253,322.9z M251.3,320.8h1.4c0-0.8-0.2-0.9-0.7-0.9
		C251.5,319.9,251.3,320.1,251.3,320.8z"/>
	<path class="st19" d="M254.4,321.4v1.6h-0.5v-3.6h0.5v1.4h1.3v-1.4h0.5v3.6h-0.5v-1.6H254.4z"/>
	<path class="st19" d="M258.3,323h-0.5v-3h-1.1v-0.6h2.6v0.6h-1V323z"/>
	<path class="st19" d="M259.7,322.5c0,0.4-0.1,0.5-0.4,0.5c-0.3,0-0.4-0.1-0.4-0.5c0-0.4,0.1-0.4,0.4-0.4
		C259.6,322.1,259.7,322.2,259.7,322.5z"/>
</g>
<g>
	<path class="st19" d="M89,322.9c-0.2,0.1-0.6,0.2-0.8,0.2c-0.9,0-1.4-0.4-1.4-1.9c0-1.5,0.5-1.9,1.4-1.9c0.3,0,0.6,0.1,0.8,0.2
		l-0.1,0.6c-0.2-0.1-0.4-0.2-0.7-0.2c-0.6,0-0.9,0.2-0.9,1.3c0,1,0.3,1.3,0.9,1.3c0.2,0,0.5-0.1,0.7-0.2L89,322.9z"/>
	<path class="st19" d="M91.7,322.9c-0.3,0.1-0.7,0.2-1,0.2c-0.8,0-1.4-0.4-1.4-1.9c0-1.4,0.5-1.9,1.3-1.9c0.8,0,1.2,0.4,1.2,2H90
		c0,1,0.3,1.2,0.8,1.2c0.2,0,0.6-0.1,0.8-0.2L91.7,322.9z M90,320.8h1.4c0-0.8-0.2-0.9-0.7-0.9C90.2,319.9,90,320.1,90,320.8z"/>
	<path class="st19" d="M93.1,321.4v1.6h-0.5v-3.6h0.5v1.4h1.3v-1.4H95v3.6h-0.5v-1.6H93.1z"/>
	<path class="st19" d="M97,323h-0.5v-3h-1.1v-0.6H98v0.6h-1V323z"/>
	<path class="st19" d="M98.4,322.5c0,0.4-0.1,0.5-0.4,0.5c-0.3,0-0.4-0.1-0.4-0.5c0-0.4,0.1-0.4,0.4-0.4
		C98.3,322.1,98.4,322.2,98.4,322.5z"/>
</g>
<g>
	<path class="st19" d="M412.7,142.3c-0.2,0.1-0.6,0.2-0.8,0.2c-0.9,0-1.4-0.4-1.4-1.9c0-1.4,0.5-1.9,1.4-1.9c0.3,0,0.6,0.1,0.8,0.2
		l-0.1,0.6c-0.2-0.1-0.4-0.2-0.7-0.2c-0.6,0-0.9,0.2-0.9,1.3c0,1,0.3,1.3,0.9,1.3c0.2,0,0.5-0.1,0.7-0.2L412.7,142.3z"/>
	<path class="st19" d="M415.4,142.3c-0.3,0.1-0.7,0.2-1,0.2c-0.8,0-1.4-0.4-1.4-1.9c0-1.4,0.5-1.9,1.3-1.9c0.8,0,1.2,0.4,1.2,2h-1.9
		c0,1,0.3,1.2,0.8,1.2c0.2,0,0.6-0.1,0.8-0.2L415.4,142.3z M413.6,140.2h1.4c0-0.8-0.2-0.9-0.7-0.9
		C413.9,139.3,413.7,139.5,413.6,140.2z"/>
	<path class="st19" d="M416.8,140.8v1.6h-0.5v-3.6h0.5v1.4h1.3v-1.4h0.5v3.6h-0.5v-1.6H416.8z"/>
	<path class="st19" d="M420.6,142.4h-0.5v-3h-1.1v-0.6h2.6v0.6h-1V142.4z"/>
	<path class="st19" d="M422.1,142c0,0.4-0.1,0.5-0.4,0.5c-0.3,0-0.4-0.1-0.4-0.5c0-0.4,0.1-0.4,0.4-0.4
		C422,141.6,422.1,141.6,422.1,142z"/>
</g>
<g>
	<path class="st19" d="M412.7,322.9c-0.2,0.1-0.6,0.2-0.8,0.2c-0.9,0-1.4-0.4-1.4-1.9c0-1.5,0.5-1.9,1.4-1.9c0.3,0,0.6,0.1,0.8,0.2
		l-0.1,0.6c-0.2-0.1-0.4-0.2-0.7-0.2c-0.6,0-0.9,0.2-0.9,1.3c0,1,0.3,1.3,0.9,1.3c0.2,0,0.5-0.1,0.7-0.2L412.7,322.9z"/>
	<path class="st19" d="M415.4,322.9c-0.3,0.1-0.7,0.2-1,0.2c-0.8,0-1.4-0.4-1.4-1.9c0-1.4,0.5-1.9,1.3-1.9c0.8,0,1.2,0.4,1.2,2h-1.9
		c0,1,0.3,1.2,0.8,1.2c0.2,0,0.6-0.1,0.8-0.2L415.4,322.9z M413.6,320.8h1.4c0-0.8-0.2-0.9-0.7-0.9
		C413.9,319.9,413.7,320.1,413.6,320.8z"/>
	<path class="st19" d="M416.8,321.4v1.6h-0.5v-3.6h0.5v1.4h1.3v-1.4h0.5v3.6h-0.5v-1.6H416.8z"/>
	<path class="st19" d="M420.6,323h-0.5v-3h-1.1v-0.6h2.6v0.6h-1V323z"/>
	<path class="st19" d="M422.1,322.5c0,0.4-0.1,0.5-0.4,0.5c-0.3,0-0.4-0.1-0.4-0.5c0-0.4,0.1-0.4,0.4-0.4
		C422,322.1,422.1,322.2,422.1,322.5z"/>
</g>
<g>
	<path class="st19" d="M276.3,140.6c0-1.4,0.4-1.9,1.3-1.9c0.9,0,1.3,0.4,1.3,1.9c0,1.5-0.4,1.9-1.3,1.9
		C276.7,142.5,276.3,142.1,276.3,140.6z M276.8,140.6c0,1.1,0.2,1.3,0.8,1.3c0.6,0,0.8-0.2,0.8-1.3c0-1.1-0.2-1.3-0.8-1.3
		C277,139.3,276.8,139.5,276.8,140.6z"/>
	<path class="st19" d="M281.5,142.4c-0.6-1.3-0.9-1.6-1.3-1.7v1.7h-0.5v-3.6h0.5v1.7c0.2-0.3,0.7-0.9,1.2-1.7h0.6
		c-0.6,0.9-1,1.5-1.2,1.6c0.3,0.1,0.6,0.3,1.2,1.9H281.5z"/>
	<path class="st19" d="M283.8,142.4h-0.5v-3h-1.1v-0.6h2.6v0.6h-1V142.4z"/>
	<path class="st19" d="M285.2,142c0,0.4-0.1,0.5-0.4,0.5c-0.3,0-0.4-0.1-0.4-0.5c0-0.4,0.1-0.4,0.4-0.4
		C285.1,141.6,285.2,141.6,285.2,142z"/>
</g>
<g>
	<path class="st19" d="M276.3,321.2c0-1.5,0.4-1.9,1.3-1.9c0.9,0,1.3,0.4,1.3,1.9c0,1.5-0.4,1.9-1.3,1.9
		C276.7,323.1,276.3,322.6,276.3,321.2z M276.8,321.2c0,1.1,0.2,1.3,0.8,1.3c0.6,0,0.8-0.2,0.8-1.3c0-1.1-0.2-1.3-0.8-1.3
		C277,319.9,276.8,320.1,276.8,321.2z"/>
	<path class="st19" d="M281.5,323c-0.6-1.3-0.9-1.6-1.3-1.7v1.7h-0.5v-3.6h0.5v1.7c0.2-0.3,0.7-0.9,1.2-1.7h0.6
		c-0.6,0.9-1,1.5-1.2,1.6c0.3,0.1,0.6,0.3,1.2,1.9H281.5z"/>
	<path class="st19" d="M283.8,323h-0.5v-3h-1.1v-0.6h2.6v0.6h-1V323z"/>
	<path class="st19" d="M285.2,322.5c0,0.4-0.1,0.5-0.4,0.5c-0.3,0-0.4-0.1-0.4-0.5c0-0.4,0.1-0.4,0.4-0.4
		C285.1,322.1,285.2,322.2,285.2,322.5z"/>
</g>
<g>
	<path class="st19" d="M115,321.2c0-1.5,0.4-1.9,1.3-1.9c0.9,0,1.3,0.4,1.3,1.9c0,1.5-0.4,1.9-1.3,1.9
		C115.4,323.1,115,322.6,115,321.2z M115.6,321.2c0,1.1,0.2,1.3,0.8,1.3c0.6,0,0.8-0.2,0.8-1.3c0-1.1-0.2-1.3-0.8-1.3
		C115.7,319.9,115.6,320.1,115.6,321.2z"/>
	<path class="st19" d="M120.2,323c-0.6-1.3-0.9-1.6-1.3-1.7v1.7h-0.5v-3.6h0.5v1.7c0.2-0.3,0.7-0.9,1.2-1.7h0.6
		c-0.6,0.9-1,1.5-1.2,1.6c0.3,0.1,0.6,0.3,1.2,1.9H120.2z"/>
	<path class="st19" d="M122.5,323h-0.5v-3h-1.1v-0.6h2.6v0.6h-1V323z"/>
	<path class="st19" d="M123.9,322.5c0,0.4-0.1,0.5-0.4,0.5c-0.3,0-0.4-0.1-0.4-0.5c0-0.4,0.1-0.4,0.4-0.4
		C123.8,322.1,123.9,322.2,123.9,322.5z"/>
</g>
<g>
	<path class="st19" d="M438.6,140.6c0-1.4,0.4-1.9,1.3-1.9c0.9,0,1.3,0.4,1.3,1.9c0,1.5-0.4,1.9-1.3,1.9
		C439.1,142.5,438.6,142.1,438.6,140.6z M439.2,140.6c0,1.1,0.2,1.3,0.8,1.3c0.6,0,0.8-0.2,0.8-1.3c0-1.1-0.2-1.3-0.8-1.3
		C439.4,139.3,439.2,139.5,439.2,140.6z"/>
	<path class="st19" d="M443.9,142.4c-0.6-1.3-0.9-1.6-1.3-1.7v1.7H442v-3.6h0.5v1.7c0.2-0.3,0.7-0.9,1.2-1.7h0.6
		c-0.6,0.9-1,1.5-1.2,1.6c0.3,0.1,0.6,0.3,1.2,1.9H443.9z"/>
	<path class="st19" d="M446.1,142.4h-0.5v-3h-1.1v-0.6h2.6v0.6h-1V142.4z"/>
	<path class="st19" d="M447.6,142c0,0.4-0.1,0.5-0.4,0.5c-0.3,0-0.4-0.1-0.4-0.5c0-0.4,0.1-0.4,0.4-0.4
		C447.5,141.6,447.6,141.6,447.6,142z"/>
</g>
<g>
	<path class="st19" d="M438.6,321.2c0-1.5,0.4-1.9,1.3-1.9c0.9,0,1.3,0.4,1.3,1.9c0,1.5-0.4,1.9-1.3,1.9
		C439.1,323.1,438.6,322.6,438.6,321.2z M439.2,321.2c0,1.1,0.2,1.3,0.8,1.3c0.6,0,0.8-0.2,0.8-1.3c0-1.1-0.2-1.3-0.8-1.3
		C439.4,319.9,439.2,320.1,439.2,321.2z"/>
	<path class="st19" d="M443.9,323c-0.6-1.3-0.9-1.6-1.3-1.7v1.7H442v-3.6h0.5v1.7c0.2-0.3,0.7-0.9,1.2-1.7h0.6
		c-0.6,0.9-1,1.5-1.2,1.6c0.3,0.1,0.6,0.3,1.2,1.9H443.9z"/>
	<path class="st19" d="M446.1,323h-0.5v-3h-1.1v-0.6h2.6v0.6h-1V323z"/>
	<path class="st19" d="M447.6,322.5c0,0.4-0.1,0.5-0.4,0.5c-0.3,0-0.4-0.1-0.4-0.5c0-0.4,0.1-0.4,0.4-0.4
		C447.5,322.1,447.6,322.2,447.6,322.5z"/>
</g>
<g>
	<path class="st19" d="M302.3,140.8v1.6h-0.5v-3.6h0.5v1.4h1.3v-1.4h0.5v3.6h-0.5v-1.6H302.3z"/>
	<path class="st19" d="M304.9,140.6c0-1.4,0.4-1.9,1.3-1.9c0.9,0,1.3,0.4,1.3,1.9c0,1.5-0.4,1.9-1.3,1.9
		C305.3,142.5,304.9,142.1,304.9,140.6z M305.4,140.6c0,1.1,0.2,1.3,0.8,1.3c0.6,0,0.8-0.2,0.8-1.3c0-1.1-0.2-1.3-0.8-1.3
		C305.6,139.3,305.4,139.5,305.4,140.6z"/>
	<path class="st19" d="M308.2,139.9c0-0.6,0.2-1,0.9-1h1.5v3.6h-0.5V141h-0.5c-0.4,0-0.6,0.2-1,1.4H308c0.5-1.3,0.7-1.5,1-1.6
		C308.4,140.8,308.2,140.4,308.2,139.9z M310.1,139.4h-0.9c-0.3,0-0.4,0.1-0.4,0.5c0,0.4,0.1,0.5,0.4,0.5h0.9V139.4z"/>
	<path class="st19" d="M312.7,138.9c0.8,0,1.2,0.4,1.2,1.8c0,1.4-0.4,1.8-1.3,1.8c-0.8,0-1.2-0.5-1.2-2.1c0-2.3,0.4-2.7,1.3-2.8
		c0.4,0,0.7-0.1,1-0.3v0.6c-0.3,0.1-0.6,0.2-1,0.3c-0.6,0.1-0.7,0.4-0.8,1.2C312.1,139.1,312.3,138.9,312.7,138.9z M312.6,141.9
		c0.6,0,0.8-0.2,0.8-1.2c0-1-0.2-1.2-0.7-1.2c-0.6,0-0.7,0.3-0.7,1.2C311.9,141.6,312.1,141.9,312.6,141.9z"/>
	<path class="st19" d="M315.1,142c0,0.4-0.1,0.5-0.4,0.5c-0.3,0-0.4-0.1-0.4-0.5c0-0.4,0.1-0.4,0.4-0.4
		C315,141.6,315.1,141.6,315.1,142z"/>
</g>
<g>
	<path class="st19" d="M302.3,321.4v1.6h-0.5v-3.6h0.5v1.4h1.3v-1.4h0.5v3.6h-0.5v-1.6H302.3z"/>
	<path class="st19" d="M304.9,321.2c0-1.5,0.4-1.9,1.3-1.9c0.9,0,1.3,0.4,1.3,1.9c0,1.5-0.4,1.9-1.3,1.9
		C305.3,323.1,304.9,322.6,304.9,321.2z M305.4,321.2c0,1.1,0.2,1.3,0.8,1.3c0.6,0,0.8-0.2,0.8-1.3c0-1.1-0.2-1.3-0.8-1.3
		C305.6,319.9,305.4,320.1,305.4,321.2z"/>
	<path class="st19" d="M308.2,320.5c0-0.6,0.2-1,0.9-1h1.5v3.6h-0.5v-1.4h-0.5c-0.4,0-0.6,0.2-1,1.4H308c0.5-1.3,0.7-1.5,1-1.6
		C308.4,321.4,308.2,321,308.2,320.5z M310.1,320h-0.9c-0.3,0-0.4,0.1-0.4,0.5c0,0.4,0.1,0.5,0.4,0.5h0.9V320z"/>
	<path class="st19" d="M312.7,319.5c0.8,0,1.2,0.4,1.2,1.8c0,1.4-0.4,1.8-1.3,1.8c-0.8,0-1.2-0.5-1.2-2.1c0-2.3,0.4-2.7,1.3-2.8
		c0.4,0,0.7-0.1,1-0.3v0.6c-0.3,0.1-0.6,0.2-1,0.3c-0.6,0.1-0.7,0.4-0.8,1.2C312.1,319.7,312.3,319.5,312.7,319.5z M312.6,322.5
		c0.6,0,0.8-0.2,0.8-1.2c0-1-0.2-1.2-0.7-1.2c-0.6,0-0.7,0.3-0.7,1.2C311.9,322.2,312.1,322.5,312.6,322.5z"/>
	<path class="st19" d="M315.1,322.5c0,0.4-0.1,0.5-0.4,0.5c-0.3,0-0.4-0.1-0.4-0.5c0-0.4,0.1-0.4,0.4-0.4
		C315,322.1,315.1,322.2,315.1,322.5z"/>
</g>
<g>
	<path class="st19" d="M141,321.4v1.6h-0.5v-3.6h0.5v1.4h1.3v-1.4h0.5v3.6h-0.5v-1.6H141z"/>
	<path class="st19" d="M143.6,321.2c0-1.5,0.4-1.9,1.3-1.9c0.9,0,1.3,0.4,1.3,1.9c0,1.5-0.4,1.9-1.3,1.9
		C144,323.1,143.6,322.6,143.6,321.2z M144.1,321.2c0,1.1,0.2,1.3,0.8,1.3c0.6,0,0.8-0.2,0.8-1.3c0-1.1-0.2-1.3-0.8-1.3
		C144.3,319.9,144.1,320.1,144.1,321.2z"/>
	<path class="st19" d="M146.9,320.5c0-0.6,0.2-1,0.9-1h1.5v3.6h-0.5v-1.4h-0.5c-0.4,0-0.6,0.2-1,1.4h-0.6c0.5-1.3,0.7-1.5,1-1.6
		C147.1,321.4,146.9,321,146.9,320.5z M148.8,320h-0.9c-0.3,0-0.4,0.1-0.4,0.5c0,0.4,0.1,0.5,0.4,0.5h0.9V320z"/>
	<path class="st19" d="M151.4,319.5c0.8,0,1.2,0.4,1.2,1.8c0,1.4-0.4,1.8-1.3,1.8c-0.8,0-1.2-0.5-1.2-2.1c0-2.3,0.4-2.7,1.3-2.8
		c0.4,0,0.7-0.1,1-0.3v0.6c-0.3,0.1-0.6,0.2-1,0.3c-0.6,0.1-0.7,0.4-0.8,1.2C150.8,319.7,151,319.5,151.4,319.5z M151.3,322.5
		c0.6,0,0.8-0.2,0.8-1.2c0-1-0.2-1.2-0.7-1.2c-0.6,0-0.7,0.3-0.7,1.2C150.6,322.2,150.8,322.5,151.3,322.5z"/>
	<path class="st19" d="M153.8,322.5c0,0.4-0.1,0.5-0.4,0.5c-0.3,0-0.4-0.1-0.4-0.5c0-0.4,0.1-0.4,0.4-0.4
		C153.7,322.1,153.8,322.2,153.8,322.5z"/>
</g>
<g>
	<path class="st19" d="M464.6,140.8v1.6h-0.5v-3.6h0.5v1.4h1.3v-1.4h0.5v3.6H466v-1.6H464.6z"/>
	<path class="st19" d="M467.2,140.6c0-1.4,0.4-1.9,1.3-1.9c0.9,0,1.3,0.4,1.3,1.9c0,1.5-0.4,1.9-1.3,1.9
		C467.6,142.5,467.2,142.1,467.2,140.6z M467.8,140.6c0,1.1,0.2,1.3,0.8,1.3c0.6,0,0.8-0.2,0.8-1.3c0-1.1-0.2-1.3-0.8-1.3
		C468,139.3,467.8,139.5,467.8,140.6z"/>
	<path class="st19" d="M470.5,139.9c0-0.6,0.2-1,0.9-1h1.5v3.6h-0.5V141H472c-0.4,0-0.6,0.2-1,1.4h-0.6c0.5-1.3,0.7-1.5,1-1.6
		C470.8,140.8,470.5,140.4,470.5,139.9z M472.5,139.4h-0.9c-0.3,0-0.4,0.1-0.4,0.5c0,0.4,0.1,0.5,0.4,0.5h0.9V139.4z"/>
	<path class="st19" d="M475.1,138.9c0.8,0,1.2,0.4,1.2,1.8c0,1.4-0.4,1.8-1.3,1.8c-0.8,0-1.2-0.5-1.2-2.1c0-2.3,0.4-2.7,1.3-2.8
		c0.4,0,0.7-0.1,1-0.3v0.6c-0.3,0.1-0.6,0.2-1,0.3c-0.6,0.1-0.7,0.4-0.8,1.2C474.4,139.1,474.7,138.9,475.1,138.9z M474.9,141.9
		c0.6,0,0.8-0.2,0.8-1.2c0-1-0.2-1.2-0.7-1.2c-0.6,0-0.7,0.3-0.7,1.2C474.3,141.6,474.5,141.9,474.9,141.9z"/>
	<path class="st19" d="M477.4,142c0,0.4-0.1,0.5-0.4,0.5c-0.3,0-0.4-0.1-0.4-0.5c0-0.4,0.1-0.4,0.4-0.4
		C477.3,141.6,477.4,141.6,477.4,142z"/>
</g>
<g>
	<path class="st19" d="M464.6,321.4v1.6h-0.5v-3.6h0.5v1.4h1.3v-1.4h0.5v3.6H466v-1.6H464.6z"/>
	<path class="st19" d="M467.2,321.2c0-1.5,0.4-1.9,1.3-1.9c0.9,0,1.3,0.4,1.3,1.9c0,1.5-0.4,1.9-1.3,1.9
		C467.6,323.1,467.2,322.6,467.2,321.2z M467.8,321.2c0,1.1,0.2,1.3,0.8,1.3c0.6,0,0.8-0.2,0.8-1.3c0-1.1-0.2-1.3-0.8-1.3
		C468,319.9,467.8,320.1,467.8,321.2z"/>
	<path class="st19" d="M470.5,320.5c0-0.6,0.2-1,0.9-1h1.5v3.6h-0.5v-1.4H472c-0.4,0-0.6,0.2-1,1.4h-0.6c0.5-1.3,0.7-1.5,1-1.6
		C470.8,321.4,470.5,321,470.5,320.5z M472.5,320h-0.9c-0.3,0-0.4,0.1-0.4,0.5c0,0.4,0.1,0.5,0.4,0.5h0.9V320z"/>
	<path class="st19" d="M475.1,319.5c0.8,0,1.2,0.4,1.2,1.8c0,1.4-0.4,1.8-1.3,1.8c-0.8,0-1.2-0.5-1.2-2.1c0-2.3,0.4-2.7,1.3-2.8
		c0.4,0,0.7-0.1,1-0.3v0.6c-0.3,0.1-0.6,0.2-1,0.3c-0.6,0.1-0.7,0.4-0.8,1.2C474.4,319.7,474.7,319.5,475.1,319.5z M474.9,322.5
		c0.6,0,0.8-0.2,0.8-1.2c0-1-0.2-1.2-0.7-1.2c-0.6,0-0.7,0.3-0.7,1.2C474.3,322.2,474.5,322.5,474.9,322.5z"/>
	<path class="st19" d="M477.4,322.5c0,0.4-0.1,0.5-0.4,0.5c-0.3,0-0.4-0.1-0.4-0.5c0-0.4,0.1-0.4,0.4-0.4
		C477.3,322.1,477.4,322.2,477.4,322.5z"/>
</g>
</svg>
